<?xml version="1.0" encoding="UTF-8"?>
<svg id="Layer_2" data-name="Layer 2" xmlns="http://www.w3.org/2000/svg" xmlns:xlink="http://www.w3.org/1999/xlink" viewBox="0 0 203.06 38.18">
  <defs>
    <style>
      .cls-1 {
        fill: url(#linear-gradient-2);
      }

      .cls-2 {
        fill: #035aa7;
      }

      .cls-3 {
        fill: url(#linear-gradient-3);
      }

      .cls-4 {
        fill: url(#linear-gradient);
      }
    </style>
    <linearGradient id="linear-gradient" x1="17.22" y1="18.14" x2="17.22" y2="30.06" gradientTransform="translate(6)" gradientUnits="userSpaceOnUse">
      <stop offset="0" stop-color="#ee4a70"/>
      <stop offset="1" stop-color="#ce2127"/>
    </linearGradient>
    <linearGradient id="linear-gradient-2" x1="4.57" y1="5" x2="24.18" y2="41.89" gradientTransform="translate(6)" gradientUnits="userSpaceOnUse">
      <stop offset="0" stop-color="#64cae5"/>
      <stop offset="1" stop-color="#426bb2"/>
    </linearGradient>
    <linearGradient id="linear-gradient-3" x1="8.54" y1="2.89" x2="28.14" y2="39.79" xlink:href="#linear-gradient-2"/>
  </defs>
  <g id="Layer_1-2" data-name="Layer 1">
    <g>
      <g>
        <path class="cls-4" d="M29.58,17.71c-2.28-2.28-4.55-1.29-6.36.35-1.81-1.63-4.06-2.65-6.36-.35-1.8,1.8-1.81,4.68,0,6.46q6.34,5.7,6.34,5.69s.01.02,6.38-5.69c1.81-1.79,1.8-4.67,0-6.46Z"/>
        <g>
          <path class="cls-1" d="M35.18,34.23s0,.43-.4.45H11.64c-.39-.01-.39-.45-.39-.45v-16.18l-3.5,2.97.02,15.17c0,1.1.89,1.99,1.99,1.99h26.91c1.1,0,1.99-.89,1.99-1.99l.04-15.22-3.52-2.92v16.18Z"/>
          <path class="cls-3" d="M24.28.4c-.63-.53-1.54-.53-2.17,0l-6.02,5.11v-3.17h-3.62v6.24L0,19.18l5.13.04L22.81,4.2c.16-.1.44-.21.77,0l17.64,14.99h5.17L24.28.4Z"/>
        </g>
      </g>
      <g>
        <path class="cls-2" d="M56.74,13.81c0,.3-.1.55-.31.76-.21.21-.46.31-.76.31s-.54-.1-.75-.31c-.21-.21-.32-.46-.32-.76s.11-.54.32-.75c.21-.21.46-.32.75-.32s.55.11.76.32c.21.21.31.46.31.75ZM54.88,18.07c0-.22.08-.41.23-.57.15-.15.34-.23.56-.23s.41.08.57.23c.16.15.24.34.24.57v12.77c0,.22-.08.41-.24.56-.16.15-.35.23-.57.23s-.41-.08-.56-.23c-.15-.15-.23-.34-.23-.56v-12.77Z"/>
        <path class="cls-2" d="M64.61,30.84c0,.22-.07.41-.22.56-.15.15-.33.23-.56.23s-.41-.08-.56-.23c-.15-.15-.23-.34-.23-.56V11.91c0-.22.08-.41.23-.56.15-.15.34-.23.56-.23.25,0,.45.09.6.28l13.34,17.15V11.91c0-.22.08-.41.23-.56.15-.15.34-.23.56-.23s.4.08.55.23c.15.15.23.34.23.56v18.93c0,.22-.08.41-.23.56-.15.15-.34.23-.55.23-.26,0-.45-.08-.59-.23l-13.36-17.19v16.62Z"/>
        <path class="cls-2" d="M93.83,28.54c.22,0,.41.08.56.24.15.16.23.35.23.57s-.07.41-.21.55c-1.33,1.15-2.89,1.73-4.68,1.73-1.98,0-3.68-.7-5.08-2.1-1.4-1.4-2.1-3.09-2.1-5.08s.7-3.68,2.1-5.08c1.4-1.4,3.09-2.1,5.08-2.1s3.68.7,5.08,2.1c1.4,1.4,2.1,3.1,2.1,5.08,0,.22-.08.41-.23.56-.15.15-.34.23-.56.23h-11.95c.26,1.28.8,2.33,1.62,3.15,1.09,1.1,2.41,1.64,3.95,1.64.7,0,1.35-.11,1.95-.34.6-.23,1.14-.55,1.64-.98.14-.12.31-.18.5-.18ZM95.29,23.66c-.24-1.27-.77-2.32-1.6-3.15-1.1-1.09-2.41-1.64-3.95-1.64s-2.86.55-3.95,1.64c-.82.82-1.36,1.87-1.62,3.15h11.12Z"/>
        <path class="cls-2" d="M103.03,13.81c0,.3-.1.55-.31.76-.21.21-.46.31-.76.31s-.54-.1-.75-.31c-.21-.21-.32-.46-.32-.76s.11-.54.32-.75c.21-.21.46-.32.75-.32s.55.11.76.32c.21.21.31.46.31.75ZM101.17,18.07c0-.22.08-.41.23-.57.15-.15.34-.23.56-.23s.41.08.57.23c.16.15.24.34.24.57v12.77c0,.22-.08.41-.24.56-.16.15-.35.23-.57.23s-.41-.08-.56-.23c-.15-.15-.23-.34-.23-.56v-12.77Z"/>
        <path class="cls-2" d="M119.99,29.01c-1.56,1.73-3.42,2.59-5.58,2.59-1.98,0-3.68-.7-5.08-2.09-1.4-1.4-2.1-3.09-2.1-5.07s.7-3.67,2.1-5.07c1.4-1.4,3.09-2.1,5.08-2.1s3.68.7,5.08,2.1c1.4,1.4,2.1,3.08,2.1,5.07v7.26c0,1.47-.53,2.75-1.6,3.84-1.51,1.51-3.33,2.26-5.46,2.26s-3.96-.75-5.45-2.26c-.56-.53-1.01-1.11-1.35-1.73-.1-.16-.14-.32-.14-.47,0-.22.08-.41.23-.56.15-.15.34-.23.56-.23s.41.08.58.24c.07.06.13.14.18.24.29.51.64.98,1.06,1.4.6.6,1.26,1.05,1.98,1.34.72.29,1.5.44,2.34.44,1.69,0,3.14-.6,4.33-1.8.75-.91,1.13-1.81,1.13-2.71v-2.69ZM114.41,18.86c-1.54,0-2.86.54-3.95,1.63-1.1,1.09-1.64,2.41-1.64,3.95s.55,2.84,1.64,3.94c1.09,1.1,2.41,1.64,3.95,1.64s2.85-.55,3.95-1.64c1.08-1.08,1.63-2.4,1.63-3.94s-.54-2.86-1.63-3.95c-1.1-1.09-2.41-1.63-3.95-1.63Z"/>
        <path class="cls-2" d="M124.7,11.88c0-.22.08-.41.23-.56.15-.15.34-.23.56-.23s.41.08.56.23c.15.15.23.34.23.56v7.67c1.57-1.52,3.26-2.28,5.05-2.28s3.41.65,4.69,1.95c1.31,1.3,1.96,2.87,1.96,4.71v6.91c0,.22-.08.41-.24.56-.16.15-.35.23-.57.23s-.41-.08-.56-.23c-.15-.15-.23-.34-.23-.56v-6.91c0-1.41-.5-2.6-1.49-3.57-.99-1-2.18-1.5-3.57-1.5s-2.58.5-3.58,1.5c-.98.97-1.48,2.16-1.48,3.57v6.91c0,.22-.08.41-.23.56-.15.15-.34.23-.56.23s-.41-.08-.56-.23c-.15-.15-.23-.34-.23-.56V11.88Z"/>
        <path class="cls-2" d="M142.72,19.87l.51-.5c1.4-1.4,3.1-2.1,5.08-2.1s3.68.7,5.08,2.1c1.4,1.4,2.1,3.1,2.1,5.08s-.7,3.68-2.1,5.08c-1.4,1.4-3.1,2.1-5.08,2.1s-3.68-.7-5.08-2.1c-1.4-1.4-2.1-3.09-2.1-5.08v-12.54c0-.22.08-.41.23-.56.15-.15.34-.23.56-.23s.41.08.56.23c.15.15.23.34.23.56v7.96ZM148.31,30.04c1.54,0,2.85-.55,3.95-1.64,1.08-1.08,1.63-2.4,1.63-3.95s-.54-2.86-1.63-3.95c-1.1-1.09-2.41-1.64-3.95-1.64s-2.85.55-3.95,1.64c-1.09,1.09-1.64,2.41-1.64,3.95s.55,2.86,1.64,3.95c1.1,1.1,2.41,1.64,3.95,1.64Z"/>
        <path class="cls-2" d="M172.96,24.45c0,1.98-.7,3.68-2.1,5.08-1.4,1.4-3.1,2.1-5.08,2.1s-3.68-.7-5.08-2.1c-1.4-1.4-2.1-3.09-2.1-5.08s.7-3.68,2.1-5.08c1.4-1.4,3.09-2.1,5.08-2.1s3.68.7,5.08,2.1c1.4,1.4,2.1,3.1,2.1,5.08ZM165.78,18.86c-1.54,0-2.86.55-3.95,1.64-1.1,1.09-1.64,2.41-1.64,3.95s.55,2.86,1.64,3.95c1.09,1.1,2.41,1.64,3.95,1.64s2.85-.55,3.95-1.64c1.08-1.08,1.63-2.4,1.63-3.95s-.54-2.86-1.63-3.95c-1.1-1.09-2.41-1.64-3.95-1.64Z"/>
        <path class="cls-2" d="M189.37,30.84c0,.22-.08.41-.24.56-.16.15-.35.23-.57.23s-.41-.08-.56-.23c-.15-.15-.23-.34-.23-.56v-1.49c-1.57,1.52-3.26,2.28-5.05,2.28s-3.39-.64-4.71-1.94c-1.29-1.3-1.94-2.87-1.94-4.72v-6.91c0-.22.08-.41.23-.57.15-.15.34-.23.56-.23s.41.08.56.23c.15.15.23.34.23.57v6.91c0,1.4.49,2.59,1.47,3.58,1.02.99,2.21,1.49,3.58,1.49s2.57-.5,3.57-1.49c.99-.98,1.49-2.18,1.49-3.58v-6.91c0-.22.08-.41.23-.57.15-.15.34-.23.56-.23s.41.08.57.23c.16.15.24.34.24.57v12.77Z"/>
        <path class="cls-2" d="M192.54,18.07c0-.22.08-.41.23-.57.15-.15.34-.23.56-.23s.41.08.57.23c.15.15.23.34.23.57v1.81c1.74-1.73,3.6-2.6,5.59-2.6,1.07,0,1.98.17,2.74.5.14.05.26.13.37.24.14.15.22.33.22.56s-.08.41-.23.56c-.15.15-.34.23-.56.23-.14,0-.26-.03-.36-.08-.6-.29-1.33-.44-2.18-.44-1.54,0-2.86.55-3.95,1.64-1.1,1.09-1.64,2.4-1.64,3.95v6.39c0,.22-.08.41-.23.56-.15.15-.34.23-.57.23s-.41-.08-.56-.23c-.15-.15-.23-.34-.23-.56v-12.77Z"/>
      </g>
    </g>
  </g>
</svg>