<?xml version="1.0" encoding="UTF-8"?>
<svg id="Layer_2" data-name="Layer 2" xmlns="http://www.w3.org/2000/svg" viewBox="0 0 289.55 87.64">
  <defs>
    <style>
      .cls-1 {
        fill: #005aa9;
      }

      .cls-2 {
        fill: #26a9e0;
      }
    </style>
  </defs>
  <g id="Layer_1-2" data-name="Layer 1">
    <g>
      <path class="cls-2" d="M185.09,87.64V4.26h-5.55c-5.82,0-9.75.83-11.8,2.5-2.06,1.66-3.57,5.22-4.54,10.68h-2.37l.26-8.72.3-8.72h57.81l.26,8.72.31,8.72h-2.37c-.97-5.46-2.48-9.01-4.54-10.68-2.05-1.66-5.99-2.5-11.8-2.5h-5.56v83.38h-10.42Z"/>
      <path class="cls-1" d="M27.32,80.98c-3.09,1.2-6.19,1.8-9.28,1.8-4.07,0-7.01-.9-8.79-2.7-1.79-1.8-2.68-4.74-2.68-8.82v-28.19l-1.83.04c-1.01.06-1.97.14-2.88.25-.91.11-1.53.22-1.85.33.18-1.19.27-2.22.27-3.08s-.09-1.83-.27-2.99c.36.15,1,.28,1.93.38.92.1,1.88.17,2.86.2l1.79.09v-2.95c0-.95-.07-2.2-.22-3.75-.15-1.55-.34-2.98-.58-4.29,2.71-.98,5.04-1.89,6.97-2.72l5.36-2.46,1.12.76c-.18,1.37-.35,3.47-.52,6.32-.16,2.84-.26,5.87-.29,9.09h1.47c1.31,0,2.63-.07,3.96-.22,1.33-.15,2.32-.33,2.94-.54-.21,1.19-.31,2.22-.31,3.08s.11,1.95.31,3.17c-.62-.21-1.61-.39-2.96-.54-1.35-.15-2.68-.22-3.99-.22h-1.47v29.03c0,2.17.43,3.82,1.27,4.93.85,1.12,2.1,1.67,3.76,1.67,1.55-.03,2.85-.27,3.92-.71v3.03Z"/>
      <path class="cls-1" d="M42.1,14.36c1.96,0,3.62.68,4.98,2.06,1.35,1.37,2.03,3.04,2.03,5s-.68,3.63-2.03,4.98c-1.36,1.35-3.02,2.03-4.98,2.03s-3.62-.68-4.98-2.03c-1.36-1.36-2.03-3.02-2.03-4.98s.67-3.63,2.03-5c1.35-1.37,3.01-2.06,4.98-2.06ZM36.17,70.53l.04-10.63-.04-10.59c-.06-3.01-.14-5.26-.25-6.77-.1-1.51-.27-3-.51-4.49,1.97.16,4.19.24,6.66.24s4.78-.08,6.75-.24c-.24,1.49-.41,2.98-.52,4.49-.1,1.5-.18,3.76-.24,6.77l-.05,10.63.05,10.59c.06,3.01.14,5.26.24,6.77.11,1.5.28,3,.52,4.49-1.97-.16-4.19-.24-6.66-.24s-4.78.08-6.75.24c.24-1.49.42-3,.53-4.51.09-1.49.17-3.74.22-6.75Z"/>
      <path class="cls-1" d="M60.4,70.53l.04-10.63-.04-10.59c-.06-3.01-.14-5.26-.25-6.77-.1-1.51-.27-3-.51-4.49,1.85.16,3.96.24,6.34.24s4.56-.08,6.44-.24c-.27,2.08-.48,3.88-.62,5.4l-.09,1.16c.68-.92,1.41-1.76,2.18-2.54,3.3-3.35,7.1-5.02,11.41-5.02s7.46,1.38,9.89,4.15c1.07,1.22,1.9,2.62,2.49,4.2.87-1.22,1.78-2.32,2.73-3.31,3.3-3.36,7.11-5.04,11.4-5.04s7.47,1.38,9.9,4.13c2.43,2.75,3.64,6.48,3.64,11.18l-.05,7.59.05,10.58c.06,3.01.14,5.26.24,6.76.11,1.5.27,3,.51,4.49-1.96-.16-4.19-.24-6.66-.24s-4.78.08-6.75.24c.24-1.49.41-2.98.51-4.49.11-1.5.19-3.75.25-6.76l.04-10.62v-6.2c0-2.95-.59-5.17-1.77-6.68-1.17-1.5-2.92-2.25-5.24-2.25-2.56,0-4.49.92-5.79,2.77-1.3,1.84-1.94,4.58-1.94,8.21v4.2l.05,10.58c.06,3.01.14,5.26.24,6.76.1,1.5.27,3,.51,4.49-1.97-.16-4.18-.24-6.66-.24s-4.78.08-6.75.24c.24-1.49.41-2.98.51-4.49.11-1.5.19-3.75.25-6.76l.04-10.62v-6.16c0-2.95-.59-5.18-1.78-6.7-1.19-1.52-2.94-2.28-5.25-2.28-2.55,0-4.47.92-5.76,2.77-1.29,1.84-1.94,4.58-1.94,8.21v4.2l.05,10.58c.06,3.01.14,5.26.24,6.76.11,1.5.28,3,.52,4.49-1.97-.16-4.19-.24-6.66-.24s-4.78.08-6.75.24c.24-1.49.41-3,.53-4.51.09-1.49.17-3.74.23-6.75Z"/>
      <path class="cls-1" d="M155.9,82.78c-6.88,0-12.32-2.01-16.33-6.04-4.02-4.03-6.02-9.51-6.02-16.44s1.94-12.8,5.82-16.97c3.88-4.18,9.13-6.27,15.73-6.27,5.89,0,10.56,1.9,14.01,5.71,2.77,3.03,4.42,6.98,4.95,11.86.15,1.28.24,2.54.27,3.79.03,1.25,0,2.14-.09,2.67v.09c-1.1-.24-3.04-.43-5.82-.58-2.78-.15-5.61-.22-8.5-.22h-13.21c.27,4.94,1.35,8.79,3.26,11.53,2.2,3.22,5.48,4.82,9.86,4.82,2.29,0,4.44-.31,6.43-.94,1.99-.63,3.84-1.56,5.53-2.79l.85.94-2.42,5.28c-2.2,1.16-4.52,2.05-6.96,2.66-2.44.61-4.89.92-7.36.92ZM161.17,55.58v-1.64c0-4.21-.58-7.39-1.74-9.54-1.16-2.15-2.88-3.22-5.17-3.22h.05c-2.53,0-4.44,1.39-5.75,4.18-1.13,2.43-1.75,5.84-1.87,10.23h14.49Z"/>
      <path class="cls-2" d="M227.04,82.78c-6.87,0-12.32-2.01-16.33-6.04-4.01-4.03-6.02-9.51-6.02-16.44s1.94-12.8,5.83-16.97c3.88-4.18,9.12-6.27,15.73-6.27,5.89,0,10.56,1.9,14.02,5.71,2.77,3.03,4.42,6.98,4.95,11.86.15,1.28.24,2.54.27,3.79.03,1.25,0,2.14-.09,2.67v.09c-1.1-.24-3.04-.43-5.82-.58-2.78-.15-5.61-.22-8.5-.22h-13.21c.27,4.94,1.35,8.79,3.26,11.53,2.2,3.22,5.48,4.82,9.86,4.82,2.29,0,4.43-.31,6.42-.94,1.99-.63,3.84-1.56,5.54-2.79l.84.94-2.42,5.28c-2.2,1.16-4.52,2.05-6.96,2.66-2.44.61-4.89.92-7.36.92ZM232.3,55.58v-1.64c0-4.21-.58-7.39-1.74-9.54-1.16-2.15-2.88-3.22-5.17-3.22h.05c-2.53,0-4.45,1.39-5.75,4.18-1.13,2.43-1.75,5.84-1.87,10.23h14.49Z"/>
      <path class="cls-2" d="M288.37,74.16c-.5.89-.91,1.69-1.2,2.39-.29.7-.61,1.56-.94,2.57-1.7,1.16-3.58,2.06-5.65,2.7-2.07.64-4.13.96-6.18.96-7.15,0-12.98-2.03-17.5-6.09-4.52-4.06-6.78-9.3-6.78-15.73,0-7.35,2.19-13.17,6.56-17.46,4.38-4.3,10.29-6.45,17.73-6.45,2.68,0,5.34.37,7.97,1.12,2.63.75,5.02,1.8,7.16,3.17-.71,1.58-1.29,2.95-1.74,4.11-.44,1.16-.94,2.58-1.47,4.25l-1.87-.05c-.45-2.64-1.49-4.69-3.13-6.13-1.64-1.44-3.73-2.16-6.26-2.16-3.76,0-6.67,1.57-8.76,4.71-2.08,3.14-3.12,7.55-3.12,13.23s1.18,10.45,3.55,13.5c2.37,3.05,5.86,4.58,10.47,4.58,1.76,0,3.47-.35,5.13-1.04,1.66-.69,3.14-1.68,4.42-2.95l1.6.78Z"/>
    </g>
  </g>
</svg>