<svg width="261" height="56" viewBox="0 0 261 56" fill="none" xmlns="http://www.w3.org/2000/svg">
<path d="M63.7 30.1H44.1L45.7 26.1H65.3L63.7 30.1Z" fill="#3D3935"/>
<path d="M63.7 18.1H44.1L45.7 14.1H65.3L63.7 18.1Z" fill="#3D3935"/>
<path d="M63.7 42.1H44.1L45.7 38.1H65.3L63.7 42.1Z" fill="#3D3935"/>
<path d="M215.6 42.1H196.8C196.4 42.1 196 41.8 196 41.3C196 40.8 196 41.2 196 41.1C196.1 39.8 196 24.7 196 14.7C196 14.5 196 14.3 196.2 14.2C196.4 14.1 196.5 14 196.7 14H215.5C215.9 14 216.3 14.3 216.3 14.8C216.3 15.3 216 15.6 215.5 15.6H197.4C197.5 32.7 197.5 38.6 197.4 40.7H215.5C215.9 40.7 216.3 41 216.3 41.5C216.3 42 216 42.3 215.5 42.3L215.6 42.1Z" fill="#3D3935"/>
<path d="M212.1 28.7999H202.4C202 28.7999 201.6 28.5 201.6 28C201.6 27.5 201.9 27.2 202.4 27.2H212.1C212.5 27.2 212.9 27.5 212.9 28C212.9 28.5 212.6 28.7999 212.1 28.7999Z" fill="#3D3935"/>
<path d="M96 42.2C95.8 42.2 95.6 42.1 95.4 41.9L75.7 17.1V41.3C75.7 41.7 75.4 42.1 74.9 42.1C74.5 42.1 74.1 41.8 74.1 41.3V15C74.1 14.7 74.3 14.4 74.6 14.3C74.9 14.2 75.2 14.3 75.4 14.5L95.1 39.3V14.7C95.1 14.3 95.4 13.9 95.9 13.9C96.4 13.9 96.7 14.2 96.7 14.7V41.4C96.7 41.7 96.5 42 96.2 42.1H96V42.2Z" fill="#3D3935"/>
<path d="M187.6 15.8H168.8C168.4 15.8 168 15.5 168 15C168 14.5 168.3 14.2 168.8 14.2H187.6C188 14.2 188.4 14.5 188.4 15C188.4 15.5 188.1 15.8 187.6 15.8Z" fill="#3D3935"/>
<path d="M178.2 41.8C177.8 41.8 177.4 41.5 177.4 41V20.6C177.4 20.2 177.7 19.8 178.2 19.8C178.7 19.8 179 20.1 179 20.6V41C179 41.4 178.7 41.8 178.2 41.8Z" fill="#3D3935"/>
<path d="M122.9 15.8H104.1C103.7 15.8 103.3 15.5 103.3 15C103.3 14.5 103.6 14.2 104.1 14.2H122.9C123.3 14.2 123.7 14.5 123.7 15C123.7 15.5 123.4 15.8 122.9 15.8Z" fill="#3D3935"/>
<path d="M113.5 41.8C113.1 41.8 112.7 41.5 112.7 41V20.6C112.7 20.2 113 19.8 113.5 19.8C114 19.8 114.3 20.1 114.3 20.6V41C114.3 41.4 114 41.8 113.5 41.8Z" fill="#3D3935"/>
<path d="M160.9 42.1C160.5 42.1 160.1 41.8 160.1 41.3V14.6C160.1 14.2 160.4 13.8 160.9 13.8C161.4 13.8 161.7 14.1 161.7 14.6V41.4001C161.7 41.8001 161.4 42.2001 160.9 42.2001V42.1Z" fill="#3D3935"/>
<path d="M131.8 42.1C131.4 42.1 131 41.8 131 41.3V20.2C131 19.8 131.3 19.4 131.8 19.4C132.3 19.4 132.6 19.7 132.6 20.2V41.3C132.6 41.7 132.3 42.1 131.8 42.1Z" fill="#3D3935"/>
<path d="M151.4 42.4C151.2 42.4 151.1 42.4 150.9 42.2L138 31C137.8 30.8 137.7 30.5 137.8 30.2C137.9 29.9 138.2 29.7 138.5 29.7H143.5C147.4 29.7 150.6 26.5 150.6 22.6C150.6 18.7 147.4 15.5 143.5 15.5H131.9C131.5 15.5 131.1 15.2 131.1 14.7C131.1 14.2 131.4 13.9 131.9 13.9H143.5C148.2 13.9 152.1 17.7 152.1 22.5C152.1 27.3 148.3 31.1 143.5 31.1H140.5L151.9 41C152.2 41.3 152.2 41.7 151.9 42.1C151.8 42.3 151.5 42.4 151.3 42.4H151.4Z" fill="#3D3935"/>
<path d="M236.7 42.2C229 42.2 222.7 35.9 222.7 28.2C222.7 20.5 229 14.2 236.7 14.2C244.4 14.2 243 15.3 245.5 17.3C245.8 17.6 245.9 18 245.6 18.4C245.3 18.7 244.9 18.8 244.5 18.5C242.3 16.7 239.5 15.7 236.7 15.7C229.8 15.7 224.2 21.3 224.2 28.2C224.2 35.1 229.8 40.7 236.7 40.7C243.6 40.7 242.4 39.7 244.6 37.9C244.9 37.6 245.4 37.7 245.7 38C246 38.3 245.9 38.7999 245.6 39.0999C243.1 41.0999 239.9 42.2999 236.7 42.2999V42.2Z" fill="#3D3935"/>
<path d="M27.4 41.9C23.8 41.9 19.4 39.9999 17.9 36.7999C17.7 36.3999 17.9 35.9999 18.3 35.7999C18.7 35.5999 19.1 35.8 19.3 36.2C20.5 38.9 24.6 40.4 27.6 40.4C30.2 40.4 32.4 39.6 33.7 38.2C34.6 37.2 35.1 35.9999 35 34.5999C35 31.4999 33.6 29.4 27.4 28.2C21.9 27.2 19.2 25.3 18.6 22C18.3 20.2 18.7 18.4 19.9 17C21.4 15.2 23.9 14.2 26.9 14.2C33 14.2 35.3 17.9 35.4 18.1C35.6 18.5 35.4 18.9 35.1 19.1C34.7 19.3 34.3 19.1 34.1 18.8C34.1 18.7 32.1 15.7 26.9 15.7C21.7 15.7 22.2 16.5 21 18C20.1 19.1 19.7 20.5 20 21.8C20.5 24.3 22.8 25.9 27.6 26.8C33.8 28 36.3 30.1999 36.4 34.5999C36.4 36.3999 35.8 38.0999 34.6 39.2999C33 40.8999 30.5 41.9 27.5 41.9C27.5 41.9 27.4 41.9 27.3 41.9H27.4Z" fill="#3D3935"/>
</svg>
