<?xml version="1.0" encoding="UTF-8"?><svg id="Layer_1" xmlns="http://www.w3.org/2000/svg" viewBox="0 0 273.65 90.78"><defs><style>.cls-1{fill:#fff;}.cls-2{fill:none;}</style></defs><path class="cls-1" d="M173.03,84.68V9.83h-4.98c-5.22,0-8.75.75-10.6,2.24-1.85,1.49-3.2,4.69-4.08,9.59h-2.13l.24-7.83.27-7.83h51.9l.23,7.83.28,7.83h-2.13c-.87-4.9-2.23-8.09-4.08-9.59-1.84-1.49-5.37-2.24-10.59-2.24h-4.99v74.86h-9.36Z"/><path class="cls-1" d="M31.38,78.7c-2.77,1.08-5.56,1.62-8.33,1.62-3.66,0-6.29-.81-7.89-2.43-1.61-1.62-2.41-4.26-2.41-7.92v-25.31l-1.65.04c-.91.06-1.77.13-2.59.22-.81.09-1.37.19-1.66.3.16-1.07.24-1.99.24-2.77s-.08-1.65-.24-2.69c.32.13.9.25,1.73.34.83.09,1.68.15,2.57.18l1.6.08v-2.65c0-.86-.07-1.98-.2-3.37-.13-1.39-.31-2.67-.52-3.85,2.43-.88,4.52-1.7,6.26-2.44l4.81-2.21,1,.68c-.16,1.23-.32,3.12-.46,5.68-.15,2.55-.23,5.27-.26,8.16h1.32c1.17,0,2.36-.07,3.56-.2,1.2-.13,2.08-.29,2.64-.48-.19,1.07-.28,1.99-.28,2.77s.1,1.75.28,2.85c-.56-.19-1.45-.35-2.66-.48-1.21-.13-2.4-.2-3.58-.2h-1.32v26.06c0,1.95.38,3.43,1.14,4.43.76,1,1.89,1.5,3.38,1.5,1.39-.03,2.56-.24,3.52-.64v2.72Z"/><path class="cls-1" d="M44.65,18.89c1.76,0,3.25.61,4.47,1.85,1.21,1.23,1.82,2.73,1.82,4.49s-.61,3.26-1.82,4.48c-1.22,1.21-2.71,1.82-4.47,1.82s-3.25-.61-4.47-1.82c-1.22-1.22-1.82-2.71-1.82-4.48s.61-3.26,1.82-4.49c1.22-1.23,2.71-1.85,4.47-1.85ZM39.33,69.32l.04-9.54-.04-9.51c-.05-2.7-.13-4.72-.22-6.08-.09-1.35-.24-2.69-.46-4.03,1.77.14,3.76.21,5.98.21s4.29-.07,6.06-.21c-.21,1.34-.37,2.68-.46,4.03-.09,1.35-.16,3.38-.22,6.08l-.04,9.54.04,9.51c.05,2.7.13,4.72.22,6.08.1,1.35.25,2.69.46,4.03-1.76-.14-3.76-.21-5.98-.21s-4.29.07-6.06.21c.21-1.34.37-2.69.48-4.05.08-1.34.15-3.36.2-6.06Z"/><path class="cls-1" d="M61.08,69.32l.04-9.54-.04-9.51c-.05-2.7-.13-4.72-.22-6.08-.09-1.35-.25-2.69-.46-4.03,1.66.14,3.56.21,5.69.21s4.1-.07,5.78-.21c-.24,1.87-.43,3.49-.56,4.85l-.08,1.04c.61-.82,1.26-1.58,1.96-2.28,2.96-3.01,6.38-4.51,10.24-4.51s6.7,1.24,8.88,3.73c.96,1.1,1.71,2.35,2.24,3.77.78-1.1,1.6-2.08,2.45-2.97,2.97-3.02,6.38-4.53,10.24-4.53s6.71,1.24,8.89,3.71c2.18,2.47,3.27,5.82,3.27,10.04l-.04,6.82.04,9.5c.05,2.7.12,4.72.22,6.07.1,1.35.25,2.69.46,4.03-1.76-.14-3.76-.21-5.98-.21s-4.29.07-6.06.21c.21-1.34.37-2.68.46-4.03.09-1.35.17-3.37.22-6.07l.04-9.54v-5.57c0-2.65-.53-4.64-1.58-5.99-1.05-1.35-2.63-2.02-4.71-2.02-2.3,0-4.03.83-5.19,2.49-1.17,1.65-1.74,4.11-1.74,7.37v3.77l.05,9.5c.05,2.7.12,4.72.22,6.07.09,1.35.25,2.69.46,4.03-1.76-.14-3.76-.21-5.98-.21s-4.29.07-6.06.21c.21-1.34.37-2.68.46-4.03.1-1.35.17-3.37.22-6.07l.04-9.54v-5.53c0-2.65-.53-4.65-1.6-6.01-1.07-1.36-2.64-2.05-4.72-2.05-2.29,0-4.01.83-5.17,2.49-1.16,1.65-1.74,4.11-1.74,7.37v3.77l.05,9.5c.05,2.7.12,4.72.22,6.07.1,1.35.25,2.69.46,4.03-1.77-.14-3.76-.21-5.98-.21s-4.29.07-6.06.21c.21-1.34.37-2.69.48-4.05.08-1.34.15-3.36.2-6.06Z"/><path class="cls-1" d="M146.82,80.32c-6.17,0-11.06-1.81-14.67-5.43-3.6-3.62-5.4-8.54-5.4-14.76s1.74-11.49,5.23-15.24c3.48-3.75,8.2-5.63,14.12-5.63,5.29,0,9.48,1.71,12.58,5.12,2.49,2.72,3.97,6.27,4.45,10.65.13,1.15.22,2.28.24,3.4.03,1.12,0,1.92-.08,2.4v.08c-.99-.21-2.73-.39-5.23-.52-2.5-.13-5.04-.2-7.63-.2h-11.86c.24,4.44,1.21,7.89,2.92,10.35,1.98,2.89,4.92,4.33,8.85,4.33,2.06,0,3.98-.28,5.77-.85,1.79-.57,3.44-1.4,4.97-2.51l.76.85-2.17,4.74c-1.97,1.04-4.06,1.84-6.25,2.39-2.19.55-4.39.82-6.61.82ZM151.55,55.9v-1.47c0-3.78-.52-6.63-1.56-8.56-1.04-1.93-2.59-2.89-4.64-2.89h.04c-2.27,0-3.99,1.25-5.16,3.75-1.02,2.18-1.58,5.24-1.68,9.18h13.01Z"/><path class="cls-1" d="M210.68,80.32c-6.17,0-11.06-1.81-14.66-5.43-3.6-3.62-5.41-8.54-5.41-14.76s1.74-11.49,5.23-15.24c3.48-3.75,8.19-5.63,14.12-5.63,5.29,0,9.48,1.71,12.58,5.12,2.48,2.72,3.97,6.27,4.45,10.65.13,1.15.21,2.28.24,3.4.03,1.12,0,1.92-.08,2.4v.08c-.99-.21-2.73-.39-5.23-.52-2.5-.13-5.04-.2-7.63-.2h-11.86c.24,4.44,1.22,7.89,2.92,10.35,1.98,2.89,4.92,4.33,8.85,4.33,2.06,0,3.98-.28,5.77-.85,1.79-.57,3.45-1.4,4.97-2.51l.76.85-2.17,4.74c-1.97,1.04-4.06,1.84-6.25,2.39-2.19.55-4.39.82-6.61.82ZM215.41,55.9v-1.47c0-3.78-.52-6.63-1.56-8.56-1.04-1.93-2.59-2.89-4.64-2.89h.04c-2.27,0-3.99,1.25-5.17,3.75-1.02,2.18-1.57,5.24-1.68,9.18h13.01Z"/><path class="cls-1" d="M265.75,72.58c-.45.8-.81,1.52-1.08,2.14-.26.63-.55,1.4-.84,2.31-1.52,1.04-3.22,1.85-5.07,2.43-1.85.58-3.71.86-5.54.86-6.42,0-11.65-1.82-15.71-5.46-4.06-3.65-6.09-8.35-6.09-14.12,0-6.6,1.96-11.82,5.89-15.68,3.93-3.86,9.24-5.79,15.92-5.79,2.4,0,4.79.34,7.16,1,2.36.67,4.51,1.62,6.43,2.85-.64,1.42-1.16,2.65-1.56,3.69-.4,1.05-.84,2.32-1.32,3.81l-1.68-.04c-.4-2.37-1.34-4.21-2.81-5.5-1.47-1.29-3.34-1.94-5.62-1.94-3.37,0-5.99,1.41-7.87,4.23-1.87,2.82-2.8,6.78-2.8,11.88s1.06,9.39,3.18,12.12c2.12,2.74,5.26,4.11,9.4,4.11,1.58,0,3.12-.31,4.61-.94,1.49-.62,2.82-1.51,3.97-2.65l1.44.7Z"/><rect class="cls-2" width="273.65" height="90.78"/></svg>