<svg width="180" height="46" viewBox="0 0 180 46" fill="none" xmlns="http://www.w3.org/2000/svg">
<path d="M27.602 21.6011C27.622 20.0442 28.0356 18.5176 28.8041 17.1635C29.5727 15.8093 30.6713 14.6716 31.9977 13.8561C31.1551 12.6527 30.0435 11.6623 28.7511 10.9636C27.4587 10.2649 26.0213 9.87725 24.5529 9.83131C21.4205 9.50251 18.3839 11.7057 16.7876 11.7057C15.1606 11.7057 12.703 9.86395 10.0566 9.91839C8.34479 9.9737 6.67654 10.4715 5.21434 11.3632C3.75215 12.2549 2.54588 13.5102 1.71307 15.0068C-1.89441 21.2527 0.796449 30.4321 4.25217 35.4809C5.98115 37.9531 8.00182 40.7147 10.6459 40.6167C13.2332 40.5094 14.1995 38.9669 17.3226 38.9669C20.4168 38.9669 21.3234 40.6167 24.0211 40.5545C26.7974 40.5094 28.5466 38.0713 30.215 35.5756C31.4572 33.8141 32.4132 31.8672 33.0473 29.8071C31.4343 29.1249 30.0579 27.9829 29.0895 26.5237C28.1212 25.0644 27.6038 23.3524 27.602 21.6011Z" fill="black"/>
<path d="M22.5066 6.5112C24.0204 4.69397 24.7661 2.35823 24.5856 0C22.2729 0.242904 20.1366 1.34822 18.6023 3.09573C17.8522 3.94943 17.2777 4.9426 16.9116 6.01847C16.5456 7.09435 16.3951 8.23182 16.4689 9.36586C17.6257 9.37777 18.7701 9.12704 19.8159 8.63257C20.8617 8.13809 21.7817 7.41276 22.5066 6.5112Z" fill="black"/>
<path d="M58.6435 34.6069H50.1529L48.1139 40.6276H44.5176L52.5598 18.3525H56.2962L64.3384 40.6276H60.6808L58.6435 34.6069ZM51.0323 31.8286H57.7625L54.4447 22.0575H54.3518L51.0323 31.8286Z" fill="black"/>
<path d="M81.7071 32.5078C81.7071 37.5546 79.0059 40.797 74.9296 40.797C73.8971 40.851 72.8701 40.6132 71.9664 40.1107C71.0627 39.6082 70.3188 38.8613 69.8199 37.9557H69.7427V45.9996H66.4092V24.3868H69.6359V27.088H69.6972C70.2191 26.1866 70.9756 25.4437 71.8861 24.9381C72.7967 24.4325 73.8273 24.1833 74.8683 24.2169C78.9902 24.2169 81.7071 27.4751 81.7071 32.5078ZM78.2807 32.5078C78.2807 29.2198 76.5815 27.0582 73.989 27.0582C71.4419 27.0582 69.7288 29.2654 69.7288 32.5078C69.7288 35.7801 71.4419 37.9715 73.989 37.9715C76.5815 37.9715 78.2807 35.8256 78.2807 32.5078Z" fill="black"/>
<path d="M99.5825 32.5078C99.5825 37.5546 96.8804 40.797 92.8042 40.797C91.7716 40.851 90.7446 40.6132 89.8409 40.1107C88.9372 39.6082 88.1933 38.8613 87.6944 37.9557H87.6172V45.9996H84.2837V24.3868H87.5104V27.088H87.5717C88.0936 26.1866 88.8501 25.4437 89.7607 24.9381C90.6712 24.4325 91.7018 24.1833 92.7428 24.2169C96.8647 24.2169 99.5825 27.4751 99.5825 32.5078ZM96.1552 32.5078C96.1552 29.2198 94.456 27.0582 91.8635 27.0582C89.3165 27.0582 87.6033 29.2654 87.6033 32.5078C87.6033 35.7801 89.3165 37.9715 91.8635 37.9715C94.456 37.9715 96.1552 35.8256 96.1552 32.5078Z" fill="black"/>
<path d="M111.394 34.4215C111.641 36.6305 113.787 38.0808 116.72 38.0808C119.529 38.0808 121.551 36.6304 121.551 34.6387C121.551 32.9097 120.332 31.8745 117.445 31.165L114.558 30.4695C110.468 29.4816 108.569 27.5687 108.569 24.4646C108.569 20.6213 111.918 17.9814 116.672 17.9814C121.381 17.9814 124.608 20.6213 124.716 24.4646H121.351C121.15 22.2417 119.312 20.8998 116.627 20.8998C113.941 20.8998 112.104 22.2574 112.104 24.2334C112.104 25.8082 113.277 26.7349 116.149 27.4442L118.603 28.0468C123.173 29.1277 125.07 30.9635 125.07 34.2217C125.07 38.3891 121.752 40.9991 116.473 40.9991C111.533 40.9991 108.197 38.4504 107.982 34.4214L111.394 34.4215Z" fill="black"/>
<path d="M132.268 20.5439V24.3872H135.356V27.0271H132.268V35.9802C132.268 37.3711 132.886 38.0192 134.244 38.0192C134.61 38.0128 134.976 37.9871 135.34 37.9421V40.5662C134.73 40.6802 134.11 40.7319 133.489 40.7203C130.201 40.7203 128.918 39.4854 128.918 36.3357V27.0271H126.557V24.3872H128.918V20.5439H132.268Z" fill="black"/>
<path d="M137.143 32.5082C137.143 27.3984 140.153 24.1875 144.845 24.1875C149.554 24.1875 152.55 27.3984 152.55 32.5082C152.55 37.632 149.57 40.8289 144.845 40.8289C140.123 40.8289 137.143 37.632 137.143 32.5082ZM149.153 32.5082C149.153 29.003 147.547 26.9342 144.845 26.9342C142.144 26.9342 140.538 29.0188 140.538 32.5082C140.538 36.0274 142.144 38.0805 144.845 38.0805C147.547 38.0805 149.153 36.0274 149.153 32.5082Z" fill="black"/>
<path d="M155.298 24.3866H158.477V27.1508H158.554C158.77 26.2875 159.275 25.5246 159.987 24.9902C160.698 24.4559 161.572 24.1827 162.461 24.2167C162.845 24.2153 163.228 24.2571 163.603 24.3411V27.4592C163.118 27.311 162.612 27.2429 162.105 27.2577C161.621 27.2381 161.138 27.3234 160.69 27.508C160.242 27.6926 159.839 27.9719 159.509 28.3269C159.179 28.6819 158.929 29.104 158.778 29.5644C158.627 30.0248 158.577 30.5126 158.631 30.9941V40.6269H155.298L155.298 24.3866Z" fill="black"/>
<path d="M178.972 35.8575C178.524 38.8057 175.653 40.8289 171.98 40.8289C167.255 40.8289 164.323 37.6636 164.323 32.5853C164.323 27.4913 167.271 24.1875 171.839 24.1875C176.333 24.1875 179.158 27.274 179.158 32.1982V33.3403H167.688V33.5417C167.635 34.1394 167.71 34.7415 167.907 35.3081C168.105 35.8746 168.421 36.3926 168.834 36.8277C169.247 37.2628 169.748 37.605 170.304 37.8315C170.86 38.0581 171.457 38.1638 172.057 38.1418C172.844 38.2156 173.635 38.0331 174.311 37.6216C174.986 37.21 175.511 36.5913 175.807 35.8575L178.972 35.8575ZM167.704 31.0105H175.823C175.853 30.4731 175.771 29.9353 175.584 29.4309C175.396 28.9264 175.106 28.4663 174.732 28.0792C174.358 27.6922 173.908 27.3867 173.41 27.1818C172.912 26.9769 172.378 26.8771 171.839 26.8887C171.297 26.8854 170.758 26.9897 170.256 27.1956C169.754 27.4014 169.297 27.7046 168.913 28.0878C168.528 28.4711 168.223 28.9266 168.016 29.4283C167.808 29.9299 167.702 30.4676 167.704 31.0105Z" fill="black"/>
<path d="M50.6156 1.58539C51.3145 1.53524 52.0157 1.64082 52.6689 1.89451C53.322 2.14821 53.9107 2.54371 54.3925 3.05246C54.8743 3.56122 55.2371 4.17056 55.4549 4.83654C55.6727 5.50252 55.7399 6.20852 55.6518 6.90364C55.6518 10.323 53.8037 12.2885 50.6156 12.2885H46.7495V1.58539H50.6156ZM48.4119 10.7749H50.4299C50.9293 10.8047 51.429 10.7229 51.8928 10.5352C52.3566 10.3475 52.7727 10.0588 53.1108 9.6901C53.4489 9.32136 53.7005 8.88187 53.8474 8.40362C53.9942 7.92537 54.0325 7.42039 53.9596 6.92545C54.0273 6.43246 53.985 5.93061 53.8359 5.45587C53.6868 4.98112 53.4346 4.54523 53.0972 4.17942C52.7599 3.81362 52.3458 3.52696 51.8847 3.33998C51.4235 3.15301 50.9267 3.07034 50.4299 3.09791H48.4119V10.7749Z" fill="black"/>
<path d="M57.5292 8.24659C57.4785 7.71578 57.5392 7.18022 57.7075 6.67425C57.8759 6.16829 58.1481 5.70309 58.5067 5.30849C58.8654 4.91389 59.3025 4.5986 59.7902 4.38286C60.2778 4.16711 60.8052 4.05566 61.3384 4.05566C61.8716 4.05566 62.399 4.16711 62.8866 4.38286C63.3742 4.5986 63.8114 4.91389 64.1701 5.30849C64.5287 5.70309 64.8009 6.16829 64.9693 6.67425C65.1376 7.18022 65.1983 7.71578 65.1475 8.24659C65.1993 8.77795 65.1393 9.31425 64.9714 9.82104C64.8035 10.3278 64.5315 10.7939 64.1727 11.1893C63.814 11.5846 63.3765 11.9006 62.8883 12.1168C62.4002 12.333 61.8723 12.4447 61.3384 12.4447C60.8045 12.4447 60.2766 12.333 59.7884 12.1168C59.3003 11.9006 58.8628 11.5846 58.5041 11.1893C58.1453 10.7939 57.8733 10.3278 57.7054 9.82104C57.5375 9.31425 57.4775 8.77795 57.5292 8.24659ZM63.5079 8.24659C63.5079 6.49575 62.7214 5.47186 61.341 5.47186C59.9554 5.47186 59.1759 6.49575 59.1759 8.24661C59.1759 10.0115 59.9555 11.0275 61.341 11.0275C62.7214 11.0275 63.5079 10.0045 63.5079 8.24659Z" fill="black"/>
<path d="M75.2747 12.2882H73.6211L71.9517 6.33928H71.8256L70.1632 12.2882H68.5253L66.2988 4.21094H67.9157L69.3626 10.3743H69.4817L71.1424 4.21094H72.6716L74.3323 10.3743H74.4584L75.8983 4.21094H77.4924L75.2747 12.2882Z" fill="black"/>
<path d="M79.3648 4.21074H80.8993V5.49388H81.0184C81.2205 5.03302 81.5613 4.64669 81.9934 4.38874C82.4254 4.13078 82.9272 4.01406 83.4288 4.05483C83.8218 4.02528 84.2164 4.08454 84.5834 4.22821C84.9504 4.37188 85.2804 4.59629 85.5489 4.88481C85.8174 5.17333 86.0175 5.51856 86.1345 5.89493C86.2514 6.2713 86.2822 6.66916 86.2245 7.05904V12.2879H84.6305V7.45934C84.6305 6.16131 84.0664 5.51578 82.8875 5.51578C82.6206 5.50336 82.3543 5.54877 82.1066 5.64892C81.859 5.74906 81.6359 5.90157 81.4527 6.09599C81.2696 6.29041 81.1306 6.52214 81.0453 6.77529C80.9601 7.02845 80.9306 7.29705 80.9588 7.56267V12.288H79.3647L79.3648 4.21074Z" fill="black"/>
<path d="M88.7646 1.05762H90.3587V12.288H88.7646V1.05762Z" fill="black"/>
<path d="M92.5741 8.24675C92.5234 7.7159 92.5841 7.18031 92.7525 6.67432C92.9209 6.16833 93.1931 5.70312 93.5518 5.30851C93.9105 4.9139 94.3477 4.59861 94.8354 4.38286C95.3231 4.16711 95.8504 4.05566 96.3837 4.05566C96.917 4.05566 97.4444 4.16711 97.932 4.38286C98.4197 4.59861 98.8569 4.9139 99.2156 5.30851C99.5743 5.70312 99.8465 6.16833 100.015 6.67432C100.183 7.18031 100.244 7.7159 100.193 8.24675C100.245 8.77812 100.185 9.31443 100.017 9.82122C99.849 10.328 99.5769 10.794 99.2182 11.1894C98.8594 11.5848 98.4219 11.9007 97.9337 12.1169C97.4456 12.3331 96.9176 12.4448 96.3837 12.4448C95.8498 12.4448 95.3218 12.3331 94.8337 12.1169C94.3455 11.9007 93.908 11.5848 93.5493 11.1894C93.1905 10.794 92.9184 10.328 92.7504 9.82122C92.5825 9.31443 92.5224 8.77812 92.5741 8.24675ZM98.5528 8.24675C98.5528 6.4959 97.7662 5.47201 96.3859 5.47201C95.0003 5.47201 94.2208 6.4959 94.2208 8.24676C94.2208 10.0116 95.0003 11.0276 96.3859 11.0276C97.7663 11.0276 98.5528 10.0046 98.5528 8.24675Z" fill="black"/>
<path d="M101.872 10.0045C101.872 8.55059 102.955 7.7124 104.876 7.59327L107.064 7.46715V6.76997C107.064 5.91687 106.5 5.43515 105.411 5.43515C104.521 5.43515 103.904 5.76185 103.727 6.33291H102.184C102.347 4.94554 103.652 4.05566 105.484 4.05566C107.509 4.05566 108.651 5.06377 108.651 6.76997V12.2888H107.117V11.1537H106.991C106.735 11.5608 106.375 11.8928 105.949 12.1156C105.523 12.3384 105.045 12.4441 104.564 12.4219C104.225 12.4571 103.883 12.421 103.558 12.3157C103.234 12.2104 102.936 12.0383 102.682 11.8106C102.428 11.5828 102.225 11.3044 102.086 10.9934C101.946 10.6823 101.873 10.3454 101.872 10.0045ZM107.064 9.31434V8.63906L105.092 8.76518C103.979 8.83962 103.475 9.218 103.475 9.93007C103.475 10.657 104.106 11.0801 104.973 11.0801C105.227 11.1058 105.483 11.0801 105.727 11.0046C105.971 10.9291 106.198 10.8053 106.393 10.6406C106.588 10.4759 106.748 10.2735 106.863 10.0457C106.979 9.81785 107.047 9.56914 107.064 9.31434Z" fill="black"/>
<path d="M110.746 8.24587C110.746 5.6936 112.058 4.07675 114.099 4.07675C114.604 4.05349 115.105 4.1744 115.543 4.42534C115.982 4.67628 116.34 5.04688 116.576 5.49383H116.695V1.05762H118.289V12.288H116.762V11.0118H116.635C116.381 11.4558 116.011 11.8217 115.564 12.0702C115.117 12.3186 114.61 12.4399 114.099 12.4211C112.044 12.4212 110.746 10.8043 110.746 8.24587ZM112.393 8.24587C112.393 9.95907 113.2 10.99 114.551 10.99C115.894 10.99 116.725 9.9442 116.725 8.25289C116.725 6.56947 115.886 5.50879 114.551 5.50879C113.209 5.50879 112.393 6.54669 112.393 8.24587Z" fill="black"/>
<path d="M124.884 8.24659C124.833 7.71578 124.894 7.18022 125.062 6.67425C125.231 6.16829 125.503 5.70309 125.862 5.30849C126.22 4.91389 126.658 4.5986 127.145 4.38286C127.633 4.16711 128.16 4.05566 128.693 4.05566C129.227 4.05566 129.754 4.16711 130.242 4.38286C130.729 4.5986 131.166 4.91389 131.525 5.30849C131.884 5.70309 132.156 6.16829 132.324 6.67425C132.493 7.18022 132.553 7.71578 132.503 8.24659C132.554 8.77795 132.494 9.31425 132.326 9.82104C132.158 10.3278 131.886 10.7939 131.528 11.1893C131.169 11.5846 130.731 11.9006 130.243 12.1168C129.755 12.333 129.227 12.4447 128.693 12.4447C128.16 12.4447 127.632 12.333 127.143 12.1168C126.655 11.9006 126.218 11.5846 125.859 11.1893C125.5 10.7939 125.228 10.3278 125.06 9.82104C124.892 9.31425 124.832 8.77795 124.884 8.24659ZM130.863 8.24659C130.863 6.49575 130.076 5.47186 128.696 5.47186C127.31 5.47186 126.531 6.49575 126.531 8.24661C126.531 10.0115 127.31 11.0275 128.696 11.0275C130.076 11.0275 130.863 10.0045 130.863 8.24659Z" fill="black"/>
<path d="M134.642 4.21074H136.176V5.49388H136.295C136.497 5.03302 136.838 4.64669 137.27 4.38874C137.702 4.13078 138.204 4.01406 138.706 4.05483C139.099 4.02528 139.493 4.08454 139.86 4.22821C140.227 4.37188 140.557 4.59629 140.826 4.88481C141.094 5.17333 141.294 5.51856 141.411 5.89493C141.528 6.2713 141.559 6.66916 141.501 7.05904V12.2879H139.907V7.45934C139.907 6.16131 139.343 5.51578 138.164 5.51578C137.898 5.50336 137.631 5.54877 137.383 5.64892C137.136 5.74906 136.913 5.90157 136.73 6.09599C136.546 6.29041 136.407 6.52214 136.322 6.77529C136.237 7.02845 136.207 7.29705 136.236 7.56267V12.288H134.642V4.21074Z" fill="black"/>
<path d="M150.509 2.2002V4.24797H152.259V5.59068H150.509V9.74403C150.509 10.5901 150.858 10.9606 151.651 10.9606C151.854 10.96 152.057 10.9477 152.259 10.9238V12.2516C151.973 12.3028 151.683 12.3301 151.392 12.3331C149.619 12.3331 148.913 11.7094 148.913 10.1522V5.5906H147.631V4.24789H148.913V2.2002H150.509Z" fill="black"/>
<path d="M154.436 1.05762H156.016V5.50877H156.142C156.354 5.04361 156.704 4.6551 157.145 4.39617C157.586 4.13724 158.096 4.0205 158.605 4.06184C158.996 4.04057 159.387 4.10584 159.75 4.25301C160.113 4.40017 160.438 4.6256 160.704 4.91321C160.97 5.20082 161.169 5.54352 161.287 5.91687C161.405 6.29022 161.439 6.685 161.387 7.07307V12.288H159.791V7.46632C159.791 6.17616 159.19 5.52277 158.064 5.52277C157.79 5.5003 157.514 5.53796 157.256 5.63313C156.999 5.72829 156.765 5.87866 156.571 6.07371C156.377 6.26876 156.228 6.50378 156.135 6.76233C156.042 7.02088 156.006 7.29672 156.03 7.57054V12.2879H154.436L154.436 1.05762Z" fill="black"/>
<path d="M170.682 10.108C170.466 10.8462 169.996 11.4848 169.356 11.912C168.717 12.3392 167.947 12.5278 167.182 12.4448C166.65 12.4589 166.121 12.3569 165.632 12.1461C165.144 11.9353 164.706 11.6206 164.351 11.224C163.996 10.8273 163.732 10.3581 163.577 9.84902C163.421 9.33991 163.378 8.80305 163.451 8.27572C163.38 7.74676 163.424 7.20875 163.579 6.69812C163.734 6.18748 163.997 5.71613 164.35 5.31599C164.703 4.91585 165.138 4.59625 165.626 4.37883C166.113 4.16141 166.641 4.05125 167.175 4.0558C169.423 4.0558 170.778 5.59127 170.778 8.12766V8.68389H165.075V8.77322C165.05 9.06964 165.087 9.368 165.184 9.64917C165.281 9.93034 165.436 10.1881 165.639 10.406C165.841 10.6239 166.087 10.797 166.36 10.9143C166.634 11.0316 166.928 11.0905 167.226 11.0872C167.607 11.133 167.994 11.0643 168.336 10.8899C168.678 10.7156 168.96 10.4434 169.148 10.108L170.682 10.108ZM165.075 7.50495H169.155C169.175 7.23387 169.138 6.96157 169.046 6.70557C168.955 6.44956 168.811 6.21551 168.624 6.01845C168.437 5.82139 168.21 5.66569 167.959 5.56133C167.708 5.45698 167.438 5.40629 167.166 5.41252C166.891 5.40905 166.617 5.46082 166.362 5.56476C166.106 5.6687 165.874 5.82271 165.679 6.01772C165.484 6.21272 165.331 6.44478 165.227 6.7002C165.123 6.95563 165.071 7.22926 165.075 7.50495Z" fill="black"/>
</svg>
