<svg width="206" height="49" viewBox="0 0 206 49" fill="none" xmlns="http://www.w3.org/2000/svg">
<path d="M66.3401 6.08961C66.3401 7.56961 65.9001 8.75961 65.0201 9.63961C64.0201 10.6896 62.7201 11.2096 61.1201 11.2096C59.5201 11.2096 58.2801 10.6796 57.2101 9.61961C56.1401 8.55961 55.6001 7.23961 55.6001 5.65961C55.6001 4.07961 56.1401 2.76961 57.2101 1.69961C58.2801 0.63961 59.5901 0.0996094 61.1201 0.0996094C61.8801 0.0996094 62.6101 0.24961 63.3001 0.53961C63.9901 0.83961 64.5501 1.22961 64.9601 1.72961L64.0301 2.66961C63.3301 1.82961 62.3601 1.40961 61.1201 1.40961C60.0001 1.40961 59.0301 1.79961 58.2201 2.58961C57.4101 3.37961 57.0001 4.39961 57.0001 5.64961C57.0001 6.89961 57.4101 7.92961 58.2201 8.70961C59.0401 9.49961 60.0001 9.88961 61.1201 9.88961C62.3101 9.88961 63.3001 9.48961 64.0901 8.69961C64.6001 8.17961 64.9001 7.46961 64.9801 6.54961H61.1201V5.26961H66.2701C66.3201 5.54961 66.3401 5.80961 66.3401 6.06961V6.08961Z" fill="white" stroke="white" stroke-width="0.2" stroke-miterlimit="10"/>
<path d="M74.5103 1.64961H69.6703V5.01961H74.0403V6.29961H69.6703V9.66961H74.5103V10.9796H68.3003V0.349609H74.5103V1.65961V1.64961Z" fill="white" stroke="white" stroke-width="0.2" stroke-miterlimit="10"/>
<path d="M80.2702 10.9698H78.9002V1.64984H75.9302V0.339844H83.2302V1.64984H80.2602V10.9698H80.2702Z" fill="white" stroke="white" stroke-width="0.2" stroke-miterlimit="10"/>
<path d="M88.52 10.9698V0.339844H89.88V10.9698H88.52Z" fill="white" stroke="white" stroke-width="0.2" stroke-miterlimit="10"/>
<path d="M95.9499 10.9698H94.5799V1.64984H91.6099V0.339844H98.9099V1.64984H95.9399V10.9698H95.9499Z" fill="white" stroke="white" stroke-width="0.2" stroke-miterlimit="10"/>
<path d="M112.74 9.59937C111.69 10.6794 110.4 11.2094 108.84 11.2094C107.28 11.2094 105.99 10.6694 104.94 9.59937C103.89 8.52937 103.37 7.20937 103.37 5.65937C103.37 4.10937 103.89 2.78937 104.94 1.71937C105.98 0.639375 107.28 0.109375 108.84 0.109375C110.4 0.109375 111.68 0.649375 112.73 1.72937C113.78 2.80937 114.3 4.11937 114.3 5.65937C114.3 7.19937 113.78 8.52937 112.73 9.59937H112.74ZM105.96 8.70938C106.75 9.50938 107.71 9.89937 108.85 9.89937C109.99 9.89937 110.95 9.49938 111.74 8.70938C112.53 7.90938 112.92 6.89937 112.92 5.65937C112.92 4.41937 112.52 3.39938 111.74 2.60938C110.96 1.80937 109.99 1.41937 108.85 1.41937C107.71 1.41937 106.75 1.81937 105.96 2.60938C105.18 3.40938 104.78 4.41937 104.78 5.65937C104.78 6.89937 105.18 7.91938 105.96 8.70938Z" fill="white" stroke="white" stroke-width="0.2" stroke-miterlimit="10"/>
<path d="M116.23 10.9698V0.339844H117.89L123.06 8.60984H123.12L123.06 6.55984V0.339844H124.43V10.9698H123L117.59 2.29984H117.53L117.59 4.34984V10.9698H116.22H116.23Z" fill="white" stroke="white" stroke-width="0.2" stroke-miterlimit="10"/>
<path d="M103.05 26.4796C98.8798 26.4796 95.4898 29.6496 95.4898 34.0096C95.4898 38.3696 98.8898 41.5396 103.05 41.5396C107.21 41.5396 110.61 38.3396 110.61 34.0096C110.61 29.6796 107.21 26.4796 103.05 26.4796ZM103.05 38.5796C100.77 38.5796 98.7998 36.6996 98.7998 34.0096C98.7998 31.3196 100.77 29.4396 103.05 29.4396C105.33 29.4396 107.3 31.2896 107.3 34.0096C107.3 36.7296 105.33 38.5796 103.05 38.5796ZM86.5498 26.4796C82.3798 26.4796 78.9898 29.6496 78.9898 34.0096C78.9898 38.3696 82.3898 41.5396 86.5498 41.5396C90.7098 41.5396 94.1098 38.3396 94.1098 34.0096C94.1098 29.6796 90.7098 26.4796 86.5498 26.4796ZM86.5498 38.5796C84.2698 38.5796 82.2998 36.6996 82.2998 34.0096C82.2998 31.3196 84.2698 29.4396 86.5498 29.4396C88.8298 29.4396 90.7998 31.2896 90.7998 34.0096C90.7998 36.7296 88.8298 38.5796 86.5498 38.5796ZM66.9198 28.7896V31.9896H74.5698C74.3398 33.7896 73.7398 35.0996 72.8298 36.0196C71.7198 37.1296 69.9798 38.3596 66.9198 38.3596C62.2098 38.3596 58.5298 34.5596 58.5298 29.8496C58.5298 25.1396 62.2098 21.3396 66.9198 21.3396C69.4598 21.3396 71.3198 22.3396 72.6798 23.6196L74.9398 21.3596C73.0298 19.5296 70.4898 18.1396 66.9198 18.1396C60.4698 18.1396 55.0498 23.3896 55.0498 29.8396C55.0498 36.2896 60.4698 41.5396 66.9198 41.5396C70.3998 41.5396 73.0298 40.3996 75.0798 38.2596C77.1898 36.1496 77.8498 33.1796 77.8498 30.7796C77.8498 30.0396 77.7898 29.3496 77.6798 28.7796H66.9198V28.7896ZM147.19 31.2696C146.56 29.5896 144.65 26.4696 140.74 26.4696C136.83 26.4696 133.63 29.5196 133.63 33.9996C133.63 38.2196 136.83 41.5296 141.11 41.5296C144.56 41.5296 146.56 39.4196 147.39 38.1896L144.82 36.4796C143.96 37.7396 142.79 38.5596 141.11 38.5596C139.43 38.5596 138.23 37.7896 137.46 36.2796L147.54 32.1096L147.2 31.2496L147.19 31.2696ZM136.91 33.7796C136.82 30.8696 139.17 29.3796 140.85 29.3796C142.16 29.3796 143.28 30.0396 143.65 30.9796L136.91 33.7796ZM128.72 41.0896H132.03V18.9396H128.72V41.0896ZM123.3 28.1596H123.19C122.45 27.2796 121.02 26.4796 119.22 26.4796C115.45 26.4796 112 29.7896 112 34.0396C112 38.2896 115.45 41.5496 119.22 41.5496C121.02 41.5496 122.44 40.7496 123.19 39.8396H123.3V40.9196C123.3 43.7996 121.76 45.3396 119.27 45.3396C117.24 45.3396 115.99 43.8796 115.47 42.6596L112.59 43.8596C113.42 45.8596 115.62 48.3096 119.27 48.3096C123.15 48.3096 126.43 46.0296 126.43 40.4596V26.9296H123.29V28.1596H123.3ZM119.5 38.5796C117.22 38.5796 115.3 36.6696 115.3 34.0396C115.3 31.4096 117.21 29.4396 119.5 29.4396C121.79 29.4396 123.53 31.3796 123.53 34.0396C123.53 36.6996 121.76 38.5796 119.5 38.5796ZM162.7 18.9396H154.78V41.0896H158.09V32.6996H162.71C166.37 32.6996 169.98 30.0496 169.98 25.8196C169.98 21.5896 166.38 18.9396 162.71 18.9396H162.7ZM162.78 29.6196H158.08V22.0296H162.78C165.25 22.0296 166.65 24.0796 166.65 25.8296C166.65 27.5796 165.25 29.6296 162.78 29.6296V29.6196ZM183.21 26.4396C180.82 26.4396 178.34 27.4896 177.31 29.8296L180.25 31.0596C180.88 29.8296 182.04 29.4396 183.27 29.4396C184.98 29.4396 186.72 30.4696 186.75 32.2896V32.5196C186.15 32.1796 184.87 31.6596 183.3 31.6596C180.14 31.6596 176.92 33.3996 176.92 36.6496C176.92 39.6096 179.51 41.5196 182.42 41.5196C184.64 41.5196 185.87 40.5196 186.64 39.3596H186.75V41.0696H189.94V32.5796C189.94 28.6496 187 26.4496 183.21 26.4496V26.4396ZM182.82 38.5696C181.74 38.5696 180.23 38.0296 180.23 36.6896C180.23 34.9796 182.11 34.3196 183.73 34.3196C185.18 34.3196 185.87 34.6296 186.75 35.0596C186.49 37.1096 184.73 38.5596 182.82 38.5596V38.5696ZM201.56 26.9196L197.77 36.5196H197.66L193.73 26.9196H190.17L196.07 40.3396L192.71 47.8096H196.16L205.25 26.9196H201.57H201.56ZM171.79 41.0896H175.1V18.9396H171.79V41.0896Z" fill="white"/>
<path d="M19.0402 22.3489L0.180176 42.3689C0.180176 42.3689 0.180176 42.3689 0.180176 42.3789C0.760176 44.5489 2.74018 46.1489 5.10018 46.1489C6.04018 46.1489 6.93018 45.8889 7.68018 45.4489L7.74018 45.4089L28.9702 33.1589L19.0302 22.3389L19.0402 22.3489Z" fill="#EA4335"/>
<path d="M38.1201 18.9394H38.1001L28.9301 13.6094L18.6001 22.7994L28.9601 33.1594L38.0801 27.8994C39.6801 27.0394 40.7601 25.3494 40.7601 23.4094C40.7601 21.4694 39.6901 19.7994 38.1101 18.9394H38.1201Z" fill="#FBBC04"/>
<path d="M0.17 4.37891C0.0600001 4.79891 0 5.23891 0 5.68891V41.0689C0 41.5189 0.0600001 41.9589 0.17 42.3789L19.68 22.8689L0.17 4.37891Z" fill="#4285F4"/>
<path d="M19.1802 23.3691L28.9402 13.6091L7.73018 1.3091C6.96018 0.849101 6.06018 0.579102 5.10018 0.579102C2.74018 0.579102 0.760176 2.1791 0.180176 4.3591L19.1802 23.3591V23.3691Z" fill="#34A853"/>
</svg>
