<svg width="138" height="138" viewBox="0 0 138 138" fill="none" xmlns="http://www.w3.org/2000/svg">
<rect width="138" height="138" rx="10" fill="url(#paint0_linear_54_11313)"/>
<rect width="138" height="138" rx="10" fill="url(#paint1_linear_54_11313)" style="mix-blend-mode:overlay"/>
<rect width="138" height="138" rx="10" fill="#7F42AF" style="mix-blend-mode:color"/>
<path d="M44.931 43.532C44.7066 43.4138 44.7237 43.087 44.9593 42.9929L48.2969 41.6604C48.3929 41.622 48.4624 41.5367 48.4799 41.4348L49.0892 37.893C49.1322 37.6431 49.4485 37.5583 49.6107 37.7533L51.9093 40.5158C51.9754 40.5953 52.0777 40.6348 52.18 40.62L55.737 40.105C55.988 40.0687 56.166 40.3434 56.0307 40.5579L54.1139 43.5978C54.0588 43.6852 54.0532 43.7949 54.0989 43.8876L55.6875 47.1112C55.7997 47.3386 55.5938 47.5934 55.348 47.531L51.8645 46.6466C51.7643 46.6212 51.6585 46.6498 51.5844 46.7219L49.0093 49.2289C48.8276 49.4059 48.5216 49.2888 48.505 49.0357L48.2692 45.4499C48.2624 45.3467 48.2027 45.2543 48.1113 45.2062L44.931 43.532Z" fill="white" stroke="white" stroke-width="2" stroke-linecap="round" stroke-linejoin="round"/>
<path d="M57.5295 30.1982C57.1902 29.8843 57.3745 29.317 57.8335 29.2626L64.3374 28.4912C64.5245 28.469 64.687 28.3515 64.7659 28.1804L67.5091 22.2332C67.7027 21.8134 68.2994 21.8134 68.493 22.2331L71.2362 28.1803C71.3151 28.3514 71.4766 28.4692 71.6637 28.4913L78.1679 29.2626C78.6269 29.317 78.8107 29.8845 78.4714 30.1983L73.6634 34.6454C73.5251 34.7733 73.4635 34.9637 73.5002 35.1484L74.7763 41.5723C74.8663 42.0256 74.3838 42.3769 73.9805 42.1511L68.2656 38.9513C68.1012 38.8593 67.9015 38.8597 67.7371 38.9518L62.0216 42.1503C61.6182 42.3761 61.1349 42.0256 61.2249 41.5723L62.5012 35.1489C62.5379 34.9641 62.4764 34.7733 62.3381 34.6454L57.5295 30.1982Z" fill="white" stroke="white" stroke-width="2" stroke-linecap="round" stroke-linejoin="round"/>
<path d="M80.9698 40.558C80.8346 40.3434 81.0128 40.0689 81.2638 40.1053L84.8206 40.6201C84.9229 40.6349 85.0257 40.5957 85.0918 40.5162L87.3904 37.7536C87.5527 37.5587 87.8689 37.6434 87.9119 37.8933L88.5213 41.4351C88.5388 41.5369 88.6077 41.6223 88.7037 41.6606L92.0415 42.9931C92.2771 43.0872 92.2939 43.4141 92.0695 43.5322L88.8896 45.2064C88.7981 45.2546 88.7384 45.3467 88.7317 45.4499L88.4957 49.0359C88.479 49.289 88.1734 49.4066 87.9917 49.2297L85.4171 46.7221C85.343 46.65 85.2371 46.6218 85.1369 46.6472L81.6533 47.5308C81.4074 47.5932 81.201 47.3388 81.3132 47.1113L82.9018 43.888C82.9475 43.7953 82.9421 43.6854 82.8869 43.598L80.9698 40.558Z" fill="white" stroke="white" stroke-width="2" stroke-linecap="round" stroke-linejoin="round"/>
<path d="M36.6251 55.1549C36.4526 55.1617 36.3515 54.9632 36.4583 54.8276L37.9721 52.9064C38.0157 52.8512 38.0275 52.7772 38.0032 52.7112L37.1571 50.4163C37.0974 50.2544 37.2549 50.0968 37.4169 50.1565L39.7118 51.0026C39.7778 51.0269 39.8515 51.0154 39.9068 50.9718L41.828 49.4579C41.9636 49.3511 42.162 49.4524 42.1553 49.6249L42.06 52.0689C42.0572 52.1392 42.0912 52.2057 42.1497 52.2448L44.183 53.6042C44.3265 53.7001 44.2919 53.9203 44.1257 53.9672L41.7716 54.6313C41.7039 54.6504 41.6513 54.7033 41.6322 54.771L40.9675 57.1249C40.9206 57.2911 40.7005 57.3262 40.6045 57.1827L39.2453 55.1494C39.2062 55.0909 39.1396 55.0568 39.0693 55.0595L36.6251 55.1549Z" fill="white" stroke="white" stroke-width="2" stroke-linecap="round" stroke-linejoin="round"/>
<path d="M94.5764 49.6251C94.5697 49.4526 94.7682 49.3514 94.9038 49.4583L96.825 50.972C96.8802 51.0156 96.9541 51.0275 97.0202 51.0031L99.3151 50.1571C99.477 50.0973 99.6346 50.2549 99.5749 50.4168L98.7288 52.7117C98.7045 52.7777 98.716 52.8515 98.7596 52.9067L100.273 54.828C100.38 54.9636 100.279 55.162 100.106 55.1552L97.6625 55.0599C97.5922 55.0572 97.5257 55.0912 97.4866 55.1497L96.1272 57.183C96.0313 57.3265 95.8111 57.2918 95.7642 57.1257L95.1001 54.7716C95.0809 54.7039 95.0281 54.6512 94.9604 54.6321L92.6064 53.9675C92.4403 53.9206 92.4052 53.7004 92.5487 53.6045L94.582 52.2452C94.6405 52.2061 94.6746 52.1395 94.6719 52.0692L94.5764 49.6251Z" fill="white" stroke="white" stroke-width="2" stroke-linecap="round" stroke-linejoin="round"/>
<path d="M103.144 92H100.357L100.375 89.9434H103.144C103.835 89.9434 104.418 89.7881 104.893 89.4775C105.367 89.1611 105.725 88.7012 105.965 88.0977C106.211 87.4941 106.334 86.7646 106.334 85.9092V85.2852C106.334 84.6289 106.264 84.0518 106.123 83.5537C105.988 83.0557 105.786 82.6367 105.517 82.2969C105.247 81.957 104.916 81.7021 104.523 81.5322C104.131 81.3564 103.68 81.2686 103.17 81.2686H100.305V79.2031H103.17C104.025 79.2031 104.808 79.3496 105.517 79.6426C106.231 79.9297 106.85 80.3428 107.371 80.8818C107.893 81.4209 108.294 82.0654 108.575 82.8154C108.862 83.5596 109.006 84.3887 109.006 85.3027V85.9092C109.006 86.8174 108.862 87.6465 108.575 88.3965C108.294 89.1465 107.893 89.791 107.371 90.3301C106.855 90.8633 106.237 91.2764 105.517 91.5693C104.802 91.8564 104.011 92 103.144 92ZM101.852 79.2031V92H99.2148V79.2031H101.852Z" fill="white"/>
<path d="M96.7988 79.2031V92H94.1621L89.0205 83.4219V92H86.3838V79.2031H89.0205L94.1709 87.79V79.2031H96.7988Z" fill="white"/>
<path d="M84.3633 85.3027V85.9092C84.3633 86.8818 84.2314 87.7549 83.9678 88.5283C83.7041 89.3018 83.332 89.9609 82.8516 90.5059C82.3711 91.0449 81.7969 91.458 81.1289 91.7451C80.4668 92.0322 79.7314 92.1758 78.9229 92.1758C78.1201 92.1758 77.3848 92.0322 76.7168 91.7451C76.0547 91.458 75.4805 91.0449 74.9941 90.5059C74.5078 89.9609 74.1299 89.3018 73.8604 88.5283C73.5967 87.7549 73.4648 86.8818 73.4648 85.9092V85.3027C73.4648 84.3242 73.5967 83.4512 73.8604 82.6836C74.124 81.9102 74.4961 81.251 74.9766 80.7061C75.4629 80.1611 76.0371 79.7451 76.6992 79.458C77.3672 79.1709 78.1025 79.0273 78.9053 79.0273C79.7139 79.0273 80.4492 79.1709 81.1113 79.458C81.7793 79.7451 82.3535 80.1611 82.834 80.7061C83.3203 81.251 83.6953 81.9102 83.959 82.6836C84.2285 83.4512 84.3633 84.3242 84.3633 85.3027ZM81.7002 85.9092V85.2852C81.7002 84.6055 81.6387 84.0078 81.5156 83.4922C81.3926 82.9766 81.2109 82.543 80.9707 82.1914C80.7305 81.8398 80.4375 81.5762 80.0918 81.4004C79.7461 81.2188 79.3506 81.1279 78.9053 81.1279C78.46 81.1279 78.0645 81.2188 77.7188 81.4004C77.3789 81.5762 77.0889 81.8398 76.8486 82.1914C76.6143 82.543 76.4355 82.9766 76.3125 83.4922C76.1895 84.0078 76.1279 84.6055 76.1279 85.2852V85.9092C76.1279 86.583 76.1895 87.1807 76.3125 87.7021C76.4355 88.2178 76.6172 88.6543 76.8574 89.0117C77.0977 89.3633 77.3906 89.6299 77.7363 89.8115C78.082 89.9932 78.4775 90.084 78.9229 90.084C79.3682 90.084 79.7637 89.9932 80.1094 89.8115C80.4551 89.6299 80.7451 89.3633 80.9795 89.0117C81.2139 88.6543 81.3926 88.2178 81.5156 87.7021C81.6387 87.1807 81.7002 86.583 81.7002 85.9092Z" fill="white"/>
<path d="M59.166 79.2031H61.3984L64.6855 88.5986L67.9727 79.2031H70.2051L65.582 92H63.7891L59.166 79.2031ZM57.9619 79.2031H60.1855L60.5898 88.3613V92H57.9619V79.2031ZM69.1855 79.2031H71.418V92H68.7813V88.3613L69.1855 79.2031Z" fill="white"/>
<path d="M50.9492 81.3916L47.4688 92H44.665L49.4199 79.2031H51.2041L50.9492 81.3916ZM53.8408 92L50.3516 81.3916L50.0703 79.2031H51.8721L56.6533 92H53.8408ZM53.6826 87.2363V89.3018H46.9238V87.2363H53.6826Z" fill="white"/>
<path d="M42.9961 79.2031V92H40.3682V79.2031H42.9961Z" fill="white"/>
<path d="M32.292 92H29.5059L29.5234 89.9434H32.292C32.9834 89.9434 33.5664 89.7881 34.041 89.4775C34.5156 89.1611 34.873 88.7012 35.1133 88.0977C35.3594 87.4941 35.4824 86.7646 35.4824 85.9092V85.2852C35.4824 84.6289 35.4121 84.0518 35.2715 83.5537C35.1367 83.0557 34.9346 82.6367 34.665 82.2969C34.3955 81.957 34.0645 81.7021 33.6719 81.5322C33.2793 81.3564 32.8281 81.2686 32.3184 81.2686H29.4531V79.2031H32.3184C33.1738 79.2031 33.9561 79.3496 34.665 79.6426C35.3799 79.9297 35.998 80.3428 36.5195 80.8818C37.041 81.4209 37.4424 82.0654 37.7236 82.8154C38.0107 83.5596 38.1543 84.3887 38.1543 85.3027V85.9092C38.1543 86.8174 38.0107 87.6465 37.7236 88.3965C37.4424 89.1465 37.041 89.791 36.5195 90.3301C36.0039 90.8633 35.3857 91.2764 34.665 91.5693C33.9502 91.8564 33.1592 92 32.292 92ZM31 79.2031V92H28.3633V79.2031H31Z" fill="white"/>
<defs>
<linearGradient id="paint0_linear_54_11313" x1="7.65121" y1="86.3105" x2="136.354" y2="56.1615" gradientUnits="userSpaceOnUse">
<stop stop-color="#576265"/>
<stop offset="0.172016" stop-color="#9EA1A1"/>
<stop offset="0.45741" stop-color="#848B8A"/>
<stop offset="0.553567" stop-color="#576265"/>
<stop offset="0.823421" stop-color="#576265"/>
<stop offset="0.925155" stop-color="#757A7B"/>
<stop offset="1" stop-color="#576265"/>
</linearGradient>
<linearGradient id="paint1_linear_54_11313" x1="55.0887" y1="69" x2="27.5637" y2="-2.83262" gradientUnits="userSpaceOnUse">
<stop stop-color="white" stop-opacity="0"/>
<stop offset="1" stop-color="white"/>
</linearGradient>
</defs>
</svg>
