<svg width="138" height="138" viewBox="0 0 138 138" fill="none" xmlns="http://www.w3.org/2000/svg">
<rect width="138" height="138" rx="10" fill="url(#paint0_linear_54_11301)"/>
<rect width="138" height="138" rx="10" fill="url(#paint1_linear_54_11301)" style="mix-blend-mode:overlay"/>
<rect width="138" height="138" rx="10" fill="#C1A875" style="mix-blend-mode:color"/>
<path d="M60.9458 47.614C60.6848 47.3726 60.8266 46.9362 61.1796 46.8943L66.1826 46.3009C66.3265 46.2838 66.4515 46.1935 66.5122 46.0619L68.6224 41.4871C68.7713 41.1642 69.2303 41.1641 69.3792 41.487L71.4894 46.0618C71.5501 46.1934 71.6743 46.284 71.8182 46.301L76.8215 46.8943C77.1745 46.9362 77.3159 47.3727 77.0549 47.6141L73.3565 51.0349C73.2501 51.1333 73.2027 51.2798 73.231 51.4219L74.2125 56.3633C74.2818 56.712 73.9107 56.9822 73.6004 56.8086L69.2043 54.3472C69.0778 54.2764 68.9242 54.2767 68.7978 54.3475L64.4012 56.8079C64.0909 56.9816 63.7191 56.712 63.7884 56.3633L64.7701 51.4222C64.7984 51.2801 64.7511 51.1333 64.6447 51.0349L60.9458 47.614Z" fill="white" stroke="white" stroke-width="2" stroke-linecap="round" stroke-linejoin="round"/>
<path d="M85.1099 92H82.3237L82.3413 89.9434H85.1099C85.8013 89.9434 86.3843 89.7881 86.8589 89.4775C87.3335 89.1611 87.6909 88.7012 87.9312 88.0977C88.1772 87.4941 88.3003 86.7646 88.3003 85.9092V85.2852C88.3003 84.6289 88.23 84.0518 88.0894 83.5537C87.9546 83.0557 87.7524 82.6367 87.4829 82.2969C87.2134 81.957 86.8823 81.7021 86.4897 81.5322C86.0972 81.3564 85.646 81.2686 85.1362 81.2686H82.271V79.2031H85.1362C85.9917 79.2031 86.7739 79.3496 87.4829 79.6426C88.1978 79.9297 88.8159 80.3428 89.3374 80.8818C89.8589 81.4209 90.2603 82.0654 90.5415 82.8154C90.8286 83.5596 90.9722 84.3887 90.9722 85.3027V85.9092C90.9722 86.8174 90.8286 87.6465 90.5415 88.3965C90.2603 89.1465 89.8589 89.791 89.3374 90.3301C88.8218 90.8633 88.2036 91.2764 87.4829 91.5693C86.7681 91.8564 85.9771 92 85.1099 92ZM83.8179 79.2031V92H81.1812V79.2031H83.8179Z" fill="white"/>
<path d="M79.5474 89.9434V92H73.105V89.9434H79.5474ZM73.9575 79.2031V92H71.3208V79.2031H73.9575Z" fill="white"/>
<path d="M69.3003 85.3027V85.9092C69.3003 86.8818 69.1685 87.7549 68.9048 88.5283C68.6411 89.3018 68.269 89.9609 67.7886 90.5059C67.3081 91.0449 66.7339 91.458 66.0659 91.7451C65.4038 92.0322 64.6685 92.1758 63.8599 92.1758C63.0571 92.1758 62.3218 92.0322 61.6538 91.7451C60.9917 91.458 60.4175 91.0449 59.9312 90.5059C59.4448 89.9609 59.0669 89.3018 58.7974 88.5283C58.5337 87.7549 58.4019 86.8818 58.4019 85.9092V85.3027C58.4019 84.3242 58.5337 83.4512 58.7974 82.6836C59.061 81.9102 59.4331 81.251 59.9136 80.7061C60.3999 80.1611 60.9741 79.7451 61.6362 79.458C62.3042 79.1709 63.0396 79.0273 63.8423 79.0273C64.6509 79.0273 65.3862 79.1709 66.0483 79.458C66.7163 79.7451 67.2905 80.1611 67.771 80.7061C68.2573 81.251 68.6323 81.9102 68.896 82.6836C69.1655 83.4512 69.3003 84.3242 69.3003 85.3027ZM66.6372 85.9092V85.2852C66.6372 84.6055 66.5757 84.0078 66.4526 83.4922C66.3296 82.9766 66.1479 82.543 65.9077 82.1914C65.6675 81.8398 65.3745 81.5762 65.0288 81.4004C64.6831 81.2188 64.2876 81.1279 63.8423 81.1279C63.397 81.1279 63.0015 81.2188 62.6558 81.4004C62.3159 81.5762 62.0259 81.8398 61.7856 82.1914C61.5513 82.543 61.3726 82.9766 61.2495 83.4922C61.1265 84.0078 61.0649 84.6055 61.0649 85.2852V85.9092C61.0649 86.583 61.1265 87.1807 61.2495 87.7021C61.3726 88.2178 61.5542 88.6543 61.7944 89.0117C62.0347 89.3633 62.3276 89.6299 62.6733 89.8115C63.019 89.9932 63.4146 90.084 63.8599 90.084C64.3052 90.084 64.7007 89.9932 65.0464 89.8115C65.3921 89.6299 65.6821 89.3633 65.9165 89.0117C66.1509 88.6543 66.3296 88.2178 66.4526 87.7021C66.5757 87.1807 66.6372 86.583 66.6372 85.9092Z" fill="white"/>
<path d="M56.5396 85.3115V90.3828C56.3403 90.623 56.0327 90.8838 55.6167 91.165C55.2007 91.4404 54.6646 91.6777 54.0083 91.877C53.3521 92.0762 52.5581 92.1758 51.6265 92.1758C50.8003 92.1758 50.0474 92.041 49.3677 91.7715C48.688 91.4961 48.1021 91.0947 47.6099 90.5674C47.1235 90.04 46.7485 89.3955 46.4849 88.6338C46.2212 87.8662 46.0894 86.9902 46.0894 86.0059V85.2061C46.0894 84.2217 46.2153 83.3457 46.4673 82.5781C46.7251 81.8105 47.0913 81.1631 47.5659 80.6357C48.0405 80.1084 48.606 79.707 49.2622 79.4316C49.9185 79.1562 50.6479 79.0186 51.4507 79.0186C52.564 79.0186 53.478 79.2002 54.1929 79.5635C54.9077 79.9209 55.4526 80.4189 55.8276 81.0576C56.2085 81.6904 56.4429 82.417 56.5308 83.2373H53.9731C53.9087 82.8037 53.7856 82.4258 53.604 82.1035C53.4224 81.7812 53.1616 81.5293 52.8218 81.3477C52.4878 81.166 52.0542 81.0752 51.521 81.0752C51.0815 81.0752 50.689 81.166 50.3433 81.3477C50.0034 81.5234 49.7163 81.7842 49.4819 82.1299C49.2476 82.4756 49.0688 82.9033 48.9458 83.4131C48.8228 83.9229 48.7612 84.5146 48.7612 85.1885V86.0059C48.7612 86.6738 48.8257 87.2656 48.9546 87.7812C49.0835 88.291 49.2739 88.7217 49.5259 89.0732C49.7837 89.4189 50.1001 89.6797 50.4751 89.8555C50.8501 90.0312 51.2866 90.1191 51.7847 90.1191C52.2007 90.1191 52.5464 90.084 52.8218 90.0137C53.103 89.9434 53.3286 89.8584 53.4985 89.7588C53.6743 89.6533 53.8091 89.5537 53.9028 89.46V87.1924H51.4946V85.3115H56.5396Z" fill="white"/>
<defs>
<linearGradient id="paint0_linear_54_11301" x1="7.65121" y1="86.3105" x2="136.354" y2="56.1615" gradientUnits="userSpaceOnUse">
<stop stop-color="#576265"/>
<stop offset="0.172016" stop-color="#9EA1A1"/>
<stop offset="0.45741" stop-color="#848B8A"/>
<stop offset="0.553567" stop-color="#576265"/>
<stop offset="0.823421" stop-color="#576265"/>
<stop offset="0.925155" stop-color="#757A7B"/>
<stop offset="1" stop-color="#576265"/>
</linearGradient>
<linearGradient id="paint1_linear_54_11301" x1="55.0887" y1="69" x2="27.5637" y2="-2.83262" gradientUnits="userSpaceOnUse">
<stop stop-color="white" stop-opacity="0"/>
<stop offset="1" stop-color="white"/>
</linearGradient>
</defs>
</svg>
