<svg width="138" height="138" viewBox="0 0 138 138" fill="none" xmlns="http://www.w3.org/2000/svg">
<rect width="138" height="138" rx="10" fill="url(#paint0_linear_54_11306)"/>
<rect width="138" height="138" rx="10" fill="url(#paint1_linear_54_11306)" style="mix-blend-mode:overlay"/>
<rect width="138" height="138" rx="10" fill="#73BAE1" style="mix-blend-mode:color"/>
<g clip-path="url(#clip0_54_11306)">
<path d="M43.276 49.5946C43.0252 49.4625 43.0443 49.0972 43.3076 48.9921L47.0379 47.5028C47.1452 47.46 47.2228 47.3646 47.2424 47.2507L47.9235 43.2922C47.9715 43.0129 48.325 42.9181 48.5063 43.136L51.0753 46.2236C51.1492 46.3124 51.2635 46.3566 51.3779 46.34L55.3533 45.7645C55.6338 45.7239 55.8328 46.0309 55.6816 46.2706L53.5393 49.6681C53.4777 49.7659 53.4714 49.8884 53.5225 49.992L55.298 53.5948C55.4234 53.8491 55.1933 54.1338 54.9185 54.064L51.0252 53.0757C50.9132 53.0473 50.795 53.0792 50.7122 53.1598L47.8342 55.9618C47.6311 56.1595 47.2891 56.0287 47.2705 55.7458L47.0069 51.7381C46.9994 51.6228 46.9327 51.5196 46.8305 51.4657L43.276 49.5946Z" fill="white" stroke="white" stroke-width="2" stroke-linecap="round" stroke-linejoin="round"/>
</g>
<path d="M57.5295 36.1982C57.1902 35.8843 57.3745 35.317 57.8335 35.2626L64.3374 34.4912C64.5245 34.469 64.687 34.3515 64.7659 34.1804L67.5091 28.2332C67.7027 27.8134 68.2994 27.8134 68.493 28.2331L71.2362 34.1803C71.3151 34.3514 71.4766 34.4692 71.6637 34.4913L78.1679 35.2626C78.6269 35.317 78.8107 35.8845 78.4714 36.1983L73.6634 40.6454C73.5251 40.7733 73.4635 40.9637 73.5002 41.1484L74.7763 47.5723C74.8663 48.0256 74.3838 48.3769 73.9805 48.1511L68.2656 44.9513C68.1012 44.8593 67.9015 44.8597 67.7371 44.9518L62.0216 48.1503C61.6182 48.3761 61.1349 48.0256 61.2249 47.5723L62.5012 41.1489C62.5379 40.9641 62.4764 40.7733 62.3381 40.6454L57.5295 36.1982Z" fill="white" stroke="white" stroke-width="2" stroke-linecap="round" stroke-linejoin="round"/>
<path d="M81.319 46.2707C81.1677 46.0309 81.367 45.7241 81.6475 45.7647L85.6227 46.3401C85.7371 46.3566 85.852 46.3128 85.9259 46.224L88.4949 43.1364C88.6762 42.9185 89.0297 43.0132 89.0778 43.2925L89.7588 47.251C89.7784 47.3648 89.8553 47.4602 89.9626 47.5031L93.6932 48.9923C93.9565 49.0974 93.9753 49.4628 93.7244 49.5948L90.1704 51.466C90.0682 51.5198 90.0015 51.6228 89.9939 51.7381L89.7302 55.746C89.7116 56.0289 89.37 56.1604 89.1669 55.9626L86.2894 53.16C86.2066 53.0794 86.0883 53.0479 85.9763 53.0763L82.0828 54.0639C81.808 54.1336 81.5773 53.8493 81.7026 53.595L83.4782 49.9925C83.5293 49.8889 83.5232 49.7661 83.4616 49.6684L81.319 46.2707Z" fill="white" stroke="white" stroke-width="2" stroke-linecap="round" stroke-linejoin="round"/>
<path d="M100.154 79.2031H102.387L105.674 88.5986L108.961 79.2031H111.193L106.57 92H104.777L100.154 79.2031ZM98.9502 79.2031H101.174L101.578 88.3613V92H98.9502V79.2031ZM110.174 79.2031H112.406V92H109.77V88.3613L110.174 79.2031Z" fill="white"/>
<path d="M94.0298 79.2031H96.6577V87.6582C96.6577 88.6426 96.4468 89.4717 96.0249 90.1455C95.6089 90.8193 95.0317 91.3262 94.2935 91.666C93.561 92.0059 92.7173 92.1758 91.7622 92.1758C90.8071 92.1758 89.9575 92.0059 89.2134 91.666C88.4751 91.3262 87.895 90.8193 87.4731 90.1455C87.0571 89.4717 86.8491 88.6426 86.8491 87.6582V79.2031H89.4858V87.6582C89.4858 88.2324 89.5767 88.7012 89.7583 89.0645C89.9399 89.4277 90.2007 89.6943 90.5405 89.8643C90.8862 90.0342 91.2935 90.1191 91.7622 90.1191C92.2427 90.1191 92.6499 90.0342 92.9839 89.8643C93.3237 89.6943 93.5815 89.4277 93.7573 89.0645C93.939 88.7012 94.0298 88.2324 94.0298 87.6582V79.2031Z" fill="white"/>
<path d="M84.5474 79.2031V92H81.9106L76.769 83.4219V92H74.1323V79.2031H76.769L81.9194 87.79V79.2031H84.5474Z" fill="white"/>
<path d="M71.5405 79.2031V92H68.9126V79.2031H71.5405Z" fill="white"/>
<path d="M63.1743 79.2031V92H60.5464V79.2031H63.1743ZM67.1118 79.2031V81.2686H56.6704V79.2031H67.1118Z" fill="white"/>
<path d="M51.5298 81.3916L48.0493 92H45.2456L50.0005 79.2031H51.7847L51.5298 81.3916ZM54.4214 92L50.9321 81.3916L50.6509 79.2031H52.4526L57.2339 92H54.4214ZM54.2632 87.2363V89.3018H47.5044V87.2363H54.2632Z" fill="white"/>
<path d="M44.5171 89.9434V92H38.0747V89.9434H44.5171ZM38.9272 79.2031V92H36.2905V79.2031H38.9272Z" fill="white"/>
<path d="M29.5508 87.4385H26.29V85.3818H29.5508C30.0547 85.3818 30.4648 85.2998 30.7812 85.1357C31.0977 84.9658 31.3291 84.7314 31.4756 84.4326C31.6221 84.1338 31.6953 83.7969 31.6953 83.4219C31.6953 83.041 31.6221 82.6865 31.4756 82.3584C31.3291 82.0303 31.0977 81.7666 30.7812 81.5674C30.4648 81.3682 30.0547 81.2686 29.5508 81.2686H27.2041V92H24.5674V79.2031H29.5508C30.5527 79.2031 31.4111 79.3848 32.126 79.748C32.8467 80.1055 33.3975 80.6006 33.7783 81.2334C34.1592 81.8662 34.3496 82.5898 34.3496 83.4043C34.3496 84.2305 34.1592 84.9453 33.7783 85.5488C33.3975 86.1523 32.8467 86.6182 32.126 86.9463C31.4111 87.2744 30.5527 87.4385 29.5508 87.4385Z" fill="white"/>
<defs>
<linearGradient id="paint0_linear_54_11306" x1="7.65121" y1="86.3105" x2="136.354" y2="56.1615" gradientUnits="userSpaceOnUse">
<stop stop-color="#576265"/>
<stop offset="0.172016" stop-color="#9EA1A1"/>
<stop offset="0.45741" stop-color="#848B8A"/>
<stop offset="0.553567" stop-color="#576265"/>
<stop offset="0.823421" stop-color="#576265"/>
<stop offset="0.925155" stop-color="#757A7B"/>
<stop offset="1" stop-color="#576265"/>
</linearGradient>
<linearGradient id="paint1_linear_54_11306" x1="55.0887" y1="69" x2="27.5637" y2="-2.83262" gradientUnits="userSpaceOnUse">
<stop stop-color="white" stop-opacity="0"/>
<stop offset="1" stop-color="white"/>
</linearGradient>
<clipPath id="clip0_54_11306">
<rect width="15.9452" height="15.9452" fill="white" transform="translate(40 43.3625) rotate(-15)"/>
</clipPath>
</defs>
</svg>
