<svg width="138" height="138" viewBox="0 0 138 138" fill="none" xmlns="http://www.w3.org/2000/svg">
<rect width="138" height="138" rx="10" fill="url(#paint0_linear_54_11297)"/>
<rect width="138" height="138" rx="10" fill="url(#paint1_linear_54_11297)" style="mix-blend-mode:overlay"/>
<rect width="138" height="138" rx="10" fill="#CDC9C2" style="mix-blend-mode:color"/>
<path d="M88.3062 62.2031H93.0786C94.0571 62.2031 94.8979 62.3496 95.6011 62.6426C96.3101 62.9355 96.855 63.3691 97.2358 63.9434C97.6167 64.5176 97.8071 65.2236 97.8071 66.0615C97.8071 66.7471 97.6899 67.3359 97.4556 67.8281C97.2271 68.3145 96.9019 68.7217 96.48 69.0498C96.064 69.3721 95.5747 69.6299 95.0122 69.8232L94.1772 70.2627H90.0288L90.0112 68.2061H93.0962C93.5591 68.2061 93.9429 68.124 94.2476 67.96C94.5522 67.7959 94.7808 67.5674 94.9331 67.2744C95.0913 66.9814 95.1704 66.6416 95.1704 66.2549C95.1704 65.8447 95.0942 65.4902 94.9419 65.1914C94.7896 64.8926 94.5581 64.6641 94.2476 64.5059C93.937 64.3477 93.5474 64.2686 93.0786 64.2686H90.9429V75H88.3062V62.2031ZM95.4604 75L92.5425 69.2959L95.3286 69.2783L98.2817 74.877V75H95.4604Z" fill="white"/>
<path d="M86.646 72.9434V75H79.8345V72.9434H86.646ZM80.6958 62.2031V75H78.0591V62.2031H80.6958ZM85.7583 67.415V69.4189H79.8345V67.415H85.7583ZM86.6372 62.2031V64.2686H79.8345V62.2031H86.6372Z" fill="white"/>
<path d="M70.7915 72.3281L73.8062 62.2031H76.7417L72.2856 75H70.3521L70.7915 72.3281ZM68.0142 62.2031L71.02 72.3281L71.4771 75H69.5259L65.0962 62.2031H68.0142Z" fill="white"/>
<path d="M66.2842 72.9434V75H59.8418V72.9434H66.2842ZM60.6943 62.2031V75H58.0576V62.2031H60.6943Z" fill="white"/>
<path d="M55.4658 62.2031V75H52.8379V62.2031H55.4658Z" fill="white"/>
<path d="M48.1104 71.6514C48.1104 71.4229 48.0752 71.2178 48.0049 71.0361C47.9404 70.8486 47.8174 70.6787 47.6357 70.5264C47.4541 70.3682 47.1992 70.2129 46.8711 70.0605C46.543 69.9082 46.1182 69.75 45.5967 69.5859C45.0166 69.3984 44.4658 69.1875 43.9443 68.9531C43.4287 68.7188 42.9717 68.4463 42.5732 68.1357C42.1807 67.8193 41.8701 67.4531 41.6416 67.0371C41.4189 66.6211 41.3076 66.1377 41.3076 65.5869C41.3076 65.0537 41.4248 64.5703 41.6592 64.1367C41.8936 63.6973 42.2217 63.3223 42.6436 63.0117C43.0654 62.6953 43.5635 62.4521 44.1377 62.2822C44.7178 62.1123 45.3535 62.0273 46.0449 62.0273C46.9883 62.0273 47.8115 62.1973 48.5146 62.5371C49.2178 62.877 49.7627 63.3428 50.1494 63.9346C50.542 64.5264 50.7383 65.2031 50.7383 65.9648H48.1191C48.1191 65.5898 48.04 65.2617 47.8818 64.9805C47.7295 64.6934 47.4951 64.4678 47.1787 64.3037C46.8682 64.1396 46.4756 64.0576 46.001 64.0576C45.5439 64.0576 45.1631 64.1279 44.8584 64.2686C44.5537 64.4033 44.3252 64.5879 44.1729 64.8223C44.0205 65.0508 43.9443 65.3086 43.9443 65.5957C43.9443 65.8125 43.9971 66.0088 44.1025 66.1846C44.2139 66.3604 44.3779 66.5244 44.5947 66.6768C44.8115 66.8291 45.0781 66.9727 45.3945 67.1074C45.7109 67.2422 46.0771 67.374 46.4932 67.5029C47.1904 67.7139 47.8027 67.9512 48.3301 68.2148C48.8633 68.4785 49.3086 68.7744 49.666 69.1025C50.0234 69.4307 50.293 69.8027 50.4746 70.2188C50.6562 70.6348 50.7471 71.1064 50.7471 71.6338C50.7471 72.1904 50.6387 72.6885 50.4219 73.1279C50.2051 73.5674 49.8916 73.9395 49.4814 74.2441C49.0713 74.5488 48.582 74.7803 48.0137 74.9385C47.4453 75.0967 46.8096 75.1758 46.1064 75.1758C45.4736 75.1758 44.8496 75.0938 44.2344 74.9297C43.6191 74.7598 43.0596 74.5049 42.5557 74.165C42.0576 73.8252 41.6592 73.3916 41.3604 72.8643C41.0615 72.3369 40.9121 71.7129 40.9121 70.9922H43.5576C43.5576 71.3906 43.6191 71.7275 43.7422 72.0029C43.8652 72.2783 44.0381 72.501 44.2607 72.6709C44.4893 72.8408 44.7588 72.9639 45.0693 73.04C45.3857 73.1162 45.7314 73.1543 46.1064 73.1543C46.5635 73.1543 46.9385 73.0898 47.2314 72.9609C47.5303 72.832 47.75 72.6533 47.8906 72.4248C48.0371 72.1963 48.1104 71.9385 48.1104 71.6514Z" fill="white"/>
<defs>
<linearGradient id="paint0_linear_54_11297" x1="7.65121" y1="86.3105" x2="136.354" y2="56.1615" gradientUnits="userSpaceOnUse">
<stop stop-color="#576265"/>
<stop offset="0.172016" stop-color="#9EA1A1"/>
<stop offset="0.45741" stop-color="#848B8A"/>
<stop offset="0.553567" stop-color="#576265"/>
<stop offset="0.823421" stop-color="#576265"/>
<stop offset="0.925155" stop-color="#757A7B"/>
<stop offset="1" stop-color="#576265"/>
</linearGradient>
<linearGradient id="paint1_linear_54_11297" x1="55.0887" y1="69" x2="27.5637" y2="-2.83262" gradientUnits="userSpaceOnUse">
<stop stop-color="white" stop-opacity="0"/>
<stop offset="1" stop-color="white"/>
</linearGradient>
</defs>
</svg>
